<svg width="884" height="802" viewBox="0 0 884 802" fill="none" xmlns="http://www.w3.org/2000/svg">
<g clip-path="url(#clip0_0:1)">
<path d="M883.026 401C883.117 456.862 871.48 512.12 848.866 563.2C848.136 564.85 847.396 566.49 846.646 568.12C846.276 568.94 845.896 569.75 845.516 570.57C845.136 571.38 844.756 572.2 844.366 573.01C843.866 574.06 843.366 575.1 842.856 576.14C842.226 577.45 841.586 578.75 840.926 580.05C840.846 580.23 840.756 580.41 840.656 580.59C840.106 581.69 839.556 582.79 838.986 583.89C838.866 584.13 838.746 584.37 838.616 584.6C837.966 585.88 837.296 587.16 836.616 588.43V588.44C835.896 589.79 835.173 591.137 834.446 592.48C832.646 595.8 830.796 599.09 828.896 602.35C828.326 603.32 827.766 604.29 827.186 605.25C826.656 606.15 826.126 607.04 825.586 607.93C825.216 608.55 824.846 609.16 824.466 609.77C823.866 610.76 823.256 611.75 822.636 612.74C822.626 612.75 822.626 612.75 822.626 612.76C821.256 614.96 819.856 617.15 818.446 619.32H818.436C817.786 620.33 817.126 621.33 816.466 622.33V622.34C814.476 625.34 812.446 628.31 810.376 631.25V631.26C810.369 631.261 810.362 631.264 810.356 631.27V631.28L810.336 631.3C808.696 633.65 807.023 635.98 805.316 638.29V638.3C804.226 639.78 803.126 641.26 802.016 642.72C801.106 643.92 800.186 645.117 799.256 646.31C799.066 646.57 798.866 646.82 798.656 647.08V647.09C798.406 647.42 798.156 647.74 797.886 648.07V648.08C793.936 653.13 789.866 658.08 785.676 662.93H785.666C785.446 663.2 785.216 663.46 784.986 663.72C784.766 663.98 784.526 664.24 784.296 664.51H784.286C783.936 664.92 783.576 665.33 783.216 665.74C782.866 666.15 782.496 666.56 782.126 666.97V666.98C760.286 691.621 735.5 713.485 708.326 732.08C704.706 734.57 701.04 736.993 697.326 739.35C696.406 739.94 695.486 740.52 694.556 741.1C694.276 741.29 693.996 741.46 693.716 741.63C693.226 741.94 692.726 742.25 692.226 742.56C691.736 742.86 691.236 743.17 690.736 743.47C688.746 744.69 686.736 745.89 684.726 747.07C684.226 747.37 683.716 747.66 683.206 747.96C682.706 748.25 682.196 748.54 681.686 748.83C681.68 748.84 681.671 748.849 681.66 748.856C681.65 748.863 681.639 748.868 681.626 748.87L681.606 748.88L681.586 748.9H681.576C679.056 750.35 676.526 751.78 673.966 753.16C669.386 755.66 664.76 758.07 660.086 760.39C658.926 760.97 657.756 761.54 656.586 762.11C655.616 762.58 654.636 763.05 653.666 763.51C653.396 763.64 653.136 763.77 652.866 763.89C652.056 764.27 651.246 764.65 650.436 765.02C649.556 765.44 648.666 765.84 647.786 766.24C646.796 766.69 645.816 767.13 644.826 767.57C641.106 769.23 637.346 770.83 633.576 772.37C620.108 777.885 606.344 782.645 592.346 786.63C591.696 786.82 591.036 787.01 590.376 787.19C584.386 788.87 578.353 790.407 572.276 791.8C561.666 794.24 550.96 796.243 540.156 797.81C540.136 797.81 540.106 797.82 540.086 797.82C538.796 798.01 537.496 798.19 536.206 798.37C536.096 798.39 535.976 798.41 535.856 798.42C535.846 798.43 535.836 798.43 535.816 798.42C535.816 798.42 535.816 798.43 535.806 798.42C534.376 798.61 532.946 798.8 531.506 798.98C531.406 799 531.306 799.01 531.206 799.02C529.866 799.18 528.516 799.34 527.166 799.49C525.716 799.65 524.266 799.8 522.806 799.95C521.696 800.06 520.586 800.17 519.476 800.27C519.378 800.29 519.277 800.3 519.176 800.3C518.166 800.39 517.157 800.48 516.146 800.56C516.106 800.56 516.056 800.57 516.016 800.57C515.136 800.65 514.256 800.71 513.376 800.78C503.026 801.6 492.576 802.007 482.026 802C470.576 802 459.243 801.523 448.026 800.57C447.986 800.57 447.946 800.56 447.906 800.56C445.516 800.36 443.13 800.14 440.746 799.9C440.116 799.84 439.496 799.77 438.866 799.71C438.746 799.7 438.626 799.69 438.506 799.67C438.316 799.65 438.126 799.63 437.926 799.61C437.826 799.6 437.716 799.59 437.616 799.57C436.786 799.48 435.956 799.39 435.116 799.29C434.186 799.18 433.246 799.07 432.316 798.95C431.386 798.84 430.446 798.72 429.516 798.59C429.316 798.57 429.106 798.55 428.906 798.51C428.226 798.43 427.546 798.34 426.876 798.24C426.546 798.2 426.226 798.15 425.906 798.1C425.256 798.01 424.616 797.92 423.966 797.82C423.946 797.82 423.916 797.81 423.896 797.81C403.476 794.861 383.317 790.317 363.606 784.22H363.596C362.526 783.89 361.456 783.55 360.386 783.21C360.066 783.12 359.746 783.02 359.426 782.91C356.646 782.02 353.883 781.1 351.136 780.15C347.346 778.85 343.583 777.49 339.846 776.07C338.826 775.68 337.816 775.29 336.796 774.9C334.766 774.1 332.746 773.3 330.736 772.48C327.306 771.08 323.9 769.637 320.516 768.15H320.506V768.14C317.346 766.75 314.21 765.317 311.096 763.84C311.004 763.813 310.917 763.772 310.836 763.72C310.826 763.72 310.826 763.71 310.816 763.71C310.126 763.39 309.436 763.06 308.746 762.73L308.726 762.72C291.574 754.498 275.035 745.054 259.236 734.46C254.166 731.07 249.183 727.567 244.286 723.95C240.336 721.04 236.443 718.057 232.606 715C213.495 699.811 195.809 682.911 179.766 664.51H179.756V664.5C178.626 663.21 177.526 661.93 176.406 660.63V660.62C176.246 660.44 176.096 660.26 175.946 660.08C175.236 659.25 174.546 658.43 173.856 657.59V657.58C172.916 656.47 171.996 655.357 171.096 654.24C170.896 654 170.706 653.77 170.516 653.53H170.506V653.52C169.766 652.62 169.036 651.71 168.316 650.8C167.946 650.35 167.586 649.89 167.226 649.43H167.216V649.42C165.036 646.67 162.9 643.893 160.806 641.09V641.08C160.226 640.31 159.656 639.54 159.096 638.76H159.086C156.406 635.14 153.796 631.477 151.256 627.77V627.76C150.296 626.37 149.346 624.97 148.406 623.56C147.466 622.15 146.536 620.737 145.616 619.32H145.606C144.656 617.86 143.717 616.393 142.786 614.92C142.736 614.84 142.686 614.77 142.647 614.7C141.726 613.25 140.82 611.79 139.927 610.32C139.207 609.15 138.497 607.99 137.807 606.82C137.327 606.03 136.857 605.25 136.397 604.45C136.226 604.18 136.077 603.91 135.927 603.65C134.867 601.84 133.826 600.03 132.786 598.21C131.576 596.07 130.377 593.91 129.207 591.75C128.727 590.86 128.247 589.96 127.777 589.06C127.607 588.77 127.457 588.48 127.307 588.18C126.747 587.12 126.187 586.06 125.637 584.99C125.087 583.93 124.537 582.86 123.997 581.79C123.457 580.72 122.917 579.65 122.387 578.57C121.987 577.76 121.587 576.94 121.197 576.13C121.156 576.062 121.119 575.992 121.087 575.92C120.907 575.54 120.717 575.17 120.547 574.79C120.507 574.732 120.476 574.668 120.457 574.6C120.047 573.76 119.647 572.93 119.257 572.09C118.737 571.01 118.237 569.92 117.737 568.83C117.377 568.07 117.037 567.3 116.687 566.53C116.187 565.45 115.697 564.36 115.217 563.26C114.707 562.13 114.217 560.99 113.726 559.85C113.597 559.56 113.476 559.28 113.356 558.99C113.126 558.47 112.906 557.95 112.686 557.43C112.096 556.05 111.516 554.65 110.946 553.26C110.296 551.69 109.663 550.117 109.046 548.54C108.456 547.07 107.883 545.597 107.326 544.12L107.116 543.58V543.57C98.4275 520.734 91.8532 497.148 87.4765 473.11V473.1C84.9809 459.376 83.2051 445.53 82.1565 431.62C82.0965 430.86 82.0465 430.1 81.9965 429.34C81.3365 419.93 81.0132 410.483 81.0265 401C81.0265 396.79 81.0932 392.6 81.2265 388.43C83.8193 301.249 114.897 217.317 169.707 149.47C172.117 146.48 174.57 143.527 177.067 140.61C250.606 54.55 359.946 0 482.026 0C624.756 0 750.076 74.57 821.126 186.88C824.826 192.7 828.366 198.627 831.746 204.66C865.472 264.595 883.137 332.228 883.026 401V401Z" fill="#C6E0D4"/>
<path d="M676.206 715.75C674.766 719.73 673.33 723.71 671.896 727.69C671.626 728.45 671.346 729.2 671.076 729.96C667.416 740.1 663.753 750.243 660.086 760.39C658.926 760.97 657.756 761.54 656.586 762.11C655.616 762.58 654.636 763.05 653.666 763.51C653.396 763.64 653.136 763.77 652.866 763.89C652.056 764.27 651.246 764.65 650.436 765.02C649.556 765.44 648.666 765.84 647.786 766.24C646.796 766.69 645.816 767.13 644.826 767.57C644.312 766.23 644.018 764.814 643.956 763.38C643.914 761.128 644.179 758.88 644.746 756.7C645.616 753.1 646.996 749.57 647.906 745.96C647.956 745.79 647.996 745.61 648.036 745.44C650.065 736.821 649.128 727.77 645.376 719.75C643.116 714.97 639.876 710.62 638.466 705.52C637.241 700.731 637.785 695.661 639.996 691.24C640.817 689.525 641.849 687.92 643.066 686.46C643.356 686.09 643.666 685.74 643.986 685.39C646.928 682.159 650.836 679.966 655.126 679.14C663.336 677.68 671.916 682.05 676.506 688.91C678.387 691.666 679.534 694.857 679.836 698.18C680.336 704.19 678.256 710.08 676.206 715.75Z" fill="#E4E4E4"/>
<path d="M653.536 756.37C651.656 752.9 648.506 749.86 647.906 745.96C645.956 733.44 641.256 724.46 633.466 719.37C631.206 717.9 630.846 714.65 629.456 712.31C628.836 711.26 628.206 710.21 627.556 709.18C626.506 707.47 625.413 705.793 624.276 704.15C622.122 700.973 619.746 697.953 617.166 695.11C616.096 693.92 614.966 692.77 613.796 691.68L613.786 691.67C613.056 690.97 612.316 690.3 611.546 689.65C611.246 689.39 610.936 689.13 610.616 688.87L610.596 688.85C609.245 687.679 607.83 686.584 606.356 685.57C602.966 683.28 599.136 681.69 595.206 682.96C593.662 683.489 592.174 684.173 590.766 685C590.046 685.41 589.336 685.84 588.626 686.27C588.146 686.56 587.666 686.85 587.186 687.15C586.796 687.38 586.406 687.61 586.016 687.83C582.996 689.57 579.963 691.277 576.916 692.95C576.476 693.2 576.036 693.44 575.586 693.68H575.576C575.266 693.86 574.946 694.03 574.626 694.2C574.016 694.54 573.396 694.88 572.786 695.21C570.956 696.2 569.123 697.18 567.286 698.15C566.346 698.65 565.396 699.13 564.446 699.61C564.006 699.83 563.566 700.05 563.136 700.28H563.126C562.966 700.36 562.816 700.44 562.656 700.52C561.356 701.19 560.076 701.88 558.836 702.63C555.24 704.796 552.115 707.663 549.646 711.06C549.166 711.72 548.706 712.4 548.286 713.1C547.736 714.005 547.235 714.94 546.786 715.9C546.476 716.55 546.186 717.2 545.926 717.86V717.87C543.468 724.191 543.124 731.138 544.946 737.67V737.68C545.066 738.13 545.196 738.57 545.346 739.01C545.586 739.75 545.856 740.49 546.156 741.21C546.487 742.013 546.861 742.797 547.276 743.56V743.57C549.502 747.366 552.279 750.81 555.516 753.79L555.616 753.89C556.016 754.28 556.426 754.68 556.826 755.07C557.046 755.28 557.276 755.49 557.516 755.69C560.976 758.66 566.566 760.91 569.726 763.96C571.416 765.59 572.406 767.44 572.016 769.75C570.976 775.88 571.206 779.85 572.266 782.4C575.146 789.36 584.186 785.82 590.376 787.19C591.036 787.01 591.696 786.82 592.346 786.63C606.344 782.645 620.108 777.885 633.576 772.37C637.346 770.83 641.106 769.23 644.826 767.57C645.816 767.13 646.796 766.69 647.786 766.24C648.666 765.84 649.556 765.44 650.436 765.02C651.246 764.65 652.056 764.27 652.866 763.89C653.136 763.77 653.396 763.64 653.666 763.51C654.636 763.05 655.616 762.58 656.586 762.11C655.596 760.18 654.566 758.27 653.536 756.37Z" fill="#E4E4E4"/>
<path d="M580.372 659.284C582.474 652.936 579.583 648.748 572.146 646.526C571.892 646.295 571.584 646.133 571.251 646.052C570.918 645.972 570.569 645.976 570.238 646.065C569.907 646.154 569.603 646.324 569.355 646.561C569.107 646.797 568.922 647.092 568.817 647.419L562.323 666.66C555.531 664.922 550.549 666.112 549.467 672.831C552.148 665.988 549.627 661.695 542.085 659.864C541.84 659.62 541.537 659.442 541.204 659.346C540.872 659.25 540.521 659.24 540.183 659.316C539.846 659.393 539.534 659.553 539.275 659.783C539.016 660.013 538.82 660.304 538.704 660.63L534.434 677.96C529.233 685.794 526.679 695.089 527.146 704.481C527.613 713.873 531.077 722.868 537.03 730.148C542.982 737.427 551.111 742.608 560.223 744.931C569.335 747.254 578.952 746.597 587.663 743.055C596.374 739.514 603.721 733.275 608.628 725.253C613.534 717.231 615.742 707.848 614.927 698.48C614.111 689.111 610.316 680.251 604.097 673.197C597.879 666.143 589.564 661.267 580.372 659.284H580.372Z" fill="#E4E4E4"/>
<path d="M576.238 714.12C575.36 714.59 574.332 714.692 573.379 714.405C572.426 714.117 571.626 713.464 571.154 712.587C571.087 712.462 571.073 712.315 571.114 712.179C571.155 712.043 571.249 711.929 571.374 711.862C571.499 711.795 571.645 711.78 571.781 711.821C571.917 711.862 572.032 711.955 572.099 712.08C572.436 712.705 573.008 713.172 573.688 713.376C574.369 713.581 575.102 713.507 575.729 713.171C576.355 712.835 576.822 712.264 577.028 711.584C577.233 710.904 577.161 710.17 576.826 709.543C576.759 709.418 576.745 709.271 576.786 709.136C576.827 709 576.92 708.886 577.046 708.819C577.171 708.752 577.317 708.737 577.453 708.778C577.589 708.818 577.703 708.911 577.771 709.036C578.241 709.914 578.343 710.942 578.056 711.895C577.768 712.848 577.114 713.648 576.238 714.12V714.12Z" fill="white"/>
<path d="M572.309 706.231C574.397 705.11 575.741 703.551 575.31 702.748C574.879 701.944 572.836 702.202 570.748 703.322C568.66 704.443 567.316 706.002 567.747 706.806C568.178 707.609 570.22 707.351 572.309 706.231Z" fill="white"/>
<path d="M550.112 707.592C550.394 706.222 550.974 704.931 551.81 703.811C552.646 702.69 553.718 701.766 554.95 701.105C556.182 700.444 557.544 700.061 558.94 699.984C560.336 699.907 561.732 700.138 563.03 700.66C563.682 698.664 563.729 696.52 563.163 694.498C562.597 692.476 561.444 690.668 559.85 689.301C558.256 687.935 556.293 687.071 554.208 686.821C552.124 686.57 550.012 686.943 548.139 687.892C546.267 688.842 544.718 690.325 543.688 692.155C542.659 693.985 542.195 696.079 542.356 698.172C542.517 700.266 543.295 702.264 544.591 703.916C545.888 705.567 547.645 706.797 549.64 707.449V707.449C549.796 707.5 549.954 707.548 550.112 707.592Z" fill="white"/>
<path d="M553.284 703.738C555.3 703.738 556.935 702.103 556.935 700.086C556.935 698.07 555.3 696.435 553.284 696.435C551.267 696.435 549.632 698.07 549.632 700.086C549.632 702.103 551.267 703.738 553.284 703.738Z" fill="#3F3D56"/>
<path d="M575.388 694.451C575.671 693.081 576.25 691.791 577.086 690.67C577.922 689.549 578.994 688.625 580.226 687.964C581.458 687.303 582.82 686.92 584.217 686.843C585.613 686.767 587.009 686.997 588.306 687.519C588.959 685.523 589.005 683.379 588.439 681.357C587.873 679.336 586.72 677.527 585.126 676.16C583.532 674.794 581.569 673.931 579.485 673.68C577.4 673.429 575.288 673.802 573.416 674.751C571.543 675.701 569.994 677.184 568.965 679.014C567.935 680.844 567.472 682.938 567.632 685.031C567.793 687.125 568.571 689.123 569.867 690.775C571.164 692.426 572.921 693.656 574.917 694.308V694.308C575.073 694.359 575.23 694.407 575.388 694.451Z" fill="white"/>
<path d="M579.9 690.393C581.917 690.393 583.552 688.758 583.552 686.742C583.552 684.725 581.917 683.09 579.9 683.09C577.883 683.09 576.249 684.725 576.249 686.742C576.249 688.758 577.883 690.393 579.9 690.393Z" fill="#3F3D56"/>
<path d="M598.225 686.489L585.757 699.194L587.016 700.429L599.483 687.724L598.225 686.489Z" fill="white"/>
<path d="M602.186 692.636L587.123 702.12L588.062 703.612L603.126 694.129L602.186 692.636Z" fill="white"/>
<path d="M559.01 713.547L541.531 716.912L541.864 718.643L559.343 715.278L559.01 713.547Z" fill="white"/>
<path d="M560.693 716.302L544.463 723.612L545.187 725.219L561.417 717.91L560.693 716.302Z" fill="white"/>
<path d="M45.9529 445.089C11.7625 414.318 -8.94009 365.384 3.7827 321.181C32.4947 362.142 74.7698 391.627 123.128 404.419C141.796 409.285 163.066 412.753 174.423 428.347C181.49 438.05 183.131 450.872 181.458 462.758C179.785 474.645 175.109 485.87 170.476 496.944L170.721 499.93C125.57 491.144 80.1433 475.86 45.9529 445.089Z" fill="#5FAF8A"/>
<path d="M4.73776 321.32C13.4275 357.977 33.8844 392.096 62.589 416.581C68.7948 421.875 75.5508 426.705 83.1293 429.828C90.5397 432.815 98.6148 433.763 106.516 432.573C113.905 431.613 121.351 429.774 128.845 430.626C136.744 431.524 143.343 435.95 147.953 442.323C153.594 450.121 156.096 459.48 158.225 468.718C160.589 478.975 162.882 489.666 169.653 498.048C170.474 499.064 168.85 500.278 168.031 499.263C156.249 484.679 157.861 464.491 149.328 448.375C145.347 440.855 139.075 434.489 130.436 432.91C122.882 431.529 115.202 433.418 107.729 434.455C99.8817 435.545 92.29 435.281 84.7619 432.623C77.0611 429.903 70.102 425.327 63.788 420.215C49.5568 408.516 37.2534 394.653 27.3286 379.133C15.9032 361.482 7.58144 342.007 2.72321 321.551C2.42303 320.285 4.43954 320.063 4.73774 321.321L4.73776 321.32Z" fill="white"/>
<path d="M52.8388 409.115C48.0073 413.382 41.8161 415.794 35.3708 415.918C28.9256 416.043 22.6459 413.872 17.6533 409.794C16.6459 408.965 17.8863 407.361 18.895 408.191C23.5371 411.997 29.3868 414.018 35.3884 413.89C41.39 413.762 47.1481 411.493 51.6235 407.492C52.5971 406.624 53.8068 408.251 52.8388 409.115V409.115Z" fill="white"/>
<path d="M102.833 433.554C103.766 420.409 99.7091 407.396 91.4729 397.109C90.656 396.09 92.2797 394.876 93.0956 395.893C101.646 406.614 105.84 420.165 104.84 433.842C104.744 435.146 102.737 434.85 102.833 433.554Z" fill="white"/>
<path d="M18.5544 361.038C20.7679 359.777 22.6334 357.985 23.9832 355.824C25.3331 353.663 26.1251 351.201 26.2882 348.658C26.3678 347.354 28.3741 347.65 28.2949 348.946C28.1017 351.754 27.2237 354.473 25.7376 356.864C24.2515 359.254 22.2025 361.245 19.7697 362.661C19.5516 362.814 19.2835 362.878 19.0199 362.84C18.7563 362.802 18.5171 362.665 18.3507 362.457C18.1909 362.242 18.1226 361.972 18.1608 361.706C18.1989 361.44 18.3404 361.2 18.5544 361.038V361.038Z" fill="white"/>
<path d="M146.569 258.993C146.543 259.809 146.516 260.625 146.503 261.451C146.202 272.42 146.793 283.395 148.27 294.267C148.371 295.11 148.486 295.962 148.611 296.8C152.448 322.957 161.107 348.175 174.15 371.171C179.349 380.317 185.235 389.054 191.759 397.307C200.77 408.704 211.446 420.344 216.031 433.66C216.525 435.044 216.932 436.457 217.251 437.892L174.346 499.399C174.178 499.49 174.024 499.592 173.856 499.683L172.255 502.217C171.889 501.815 171.518 501.39 171.152 500.988C170.938 500.756 170.734 500.51 170.521 500.277C170.382 500.118 170.243 499.958 170.108 499.822C170.062 499.769 170.016 499.716 169.983 499.673C169.848 499.537 169.737 499.397 169.617 499.271C167.535 496.901 165.467 494.513 163.412 492.106C163.398 492.096 163.398 492.096 163.394 492.072C147.781 473.691 133.565 453.846 122.814 432.473C122.491 431.83 122.153 431.178 121.849 430.507C117.057 420.846 113.062 410.81 109.904 400.498C108.193 394.846 106.769 389.112 105.638 383.316C102.745 368.335 102.226 352.992 104.1 337.85C107.841 307.664 121.195 279.011 144.755 260.398C145.358 259.922 145.952 259.459 146.569 258.993Z" fill="#5FAF8A"/>
<path d="M147.254 259.676C132.122 294.177 127.914 333.735 136.091 370.567C137.859 378.53 140.345 386.454 144.516 393.51C148.634 400.357 154.511 405.975 161.535 409.783C168.014 413.464 175.066 416.48 180.537 421.672C186.303 427.144 188.907 434.652 188.751 442.516C188.56 452.138 184.923 461.117 181.061 469.775C176.773 479.387 172.167 489.304 172.527 500.074C172.571 501.379 170.543 501.37 170.5 500.067C169.874 481.329 183.315 466.18 186.205 448.175C187.554 439.774 186.379 430.915 180.432 424.453C175.233 418.802 167.962 415.687 161.371 412.016C154.45 408.161 148.547 403.38 144.137 396.725C139.626 389.917 136.824 382.073 134.861 374.19C130.541 356.281 129.064 337.805 130.484 319.437C131.988 298.465 137.069 277.906 145.506 258.647C146.029 257.455 147.773 258.492 147.253 259.676L147.254 259.676Z" fill="white"/>
<path d="M132.801 358.735C126.374 359.234 119.979 357.432 114.758 353.65C109.537 349.869 105.83 344.355 104.299 338.093C103.993 336.825 105.95 336.291 106.255 337.561C107.67 343.395 111.124 348.531 115.993 352.042C120.862 355.553 126.826 357.208 132.808 356.708C134.108 356.601 134.094 358.628 132.801 358.735Z" fill="white"/>
<path d="M158.005 408.349C166.663 398.414 171.26 385.582 170.877 372.409C170.838 371.104 172.865 371.113 172.904 372.416C173.277 386.124 168.467 399.469 159.434 409.787C158.572 410.77 157.148 409.326 158.005 408.349L158.005 408.349Z" fill="white"/>
<path d="M134.372 299.707C136.899 300.033 139.468 299.725 141.847 298.812C144.225 297.9 146.34 296.411 148.001 294.479C148.85 293.485 150.273 294.93 149.43 295.917C147.585 298.043 145.247 299.685 142.621 300.699C139.995 301.713 137.161 302.069 134.366 301.735C134.1 301.725 133.847 301.615 133.659 301.426C133.472 301.237 133.363 300.984 133.355 300.718C133.358 300.449 133.466 300.193 133.656 300.003C133.847 299.814 134.104 299.708 134.372 299.707V299.707Z" fill="white"/>
<path d="M538.521 263.095C544.481 230.13 534.576 192.725 507.536 172.95C509.274 209.338 498.086 245.168 475.95 274.101C467.372 285.228 456.673 296.712 457.09 310.755C457.349 319.493 462.123 327.607 468.387 333.704C474.652 339.802 482.35 344.179 489.957 348.488L491.147 350.317C513.224 325.121 532.56 296.06 538.521 263.095Z" fill="#5FAF8A"/>
<path d="M507.048 173.456C518.507 198.706 521.72 226.924 516.228 254.103C515.15 259.975 513.153 265.64 510.31 270.89C507.376 275.915 503.15 280.062 498.071 282.901C493.388 285.644 488.281 287.906 484.347 291.739C482.362 293.731 480.82 296.12 479.824 298.749C478.827 301.379 478.397 304.189 478.563 306.996C478.793 314.001 481.527 320.505 484.421 326.773C487.634 333.733 491.083 340.91 490.923 348.757C490.903 349.707 492.38 349.682 492.399 348.733C492.677 335.081 482.745 324.177 480.47 311.093C479.408 304.988 480.18 298.526 484.449 293.764C488.182 289.599 493.447 287.261 498.212 284.526C503.207 281.829 507.466 277.95 510.617 273.227C513.718 268.139 515.93 262.56 517.158 256.729C520.134 243.647 521.034 230.178 519.826 216.816C518.532 201.558 514.637 186.635 508.311 172.69C507.919 171.827 506.659 172.599 507.048 173.456L507.048 173.456Z" fill="white"/>
<path d="M518.512 245.455C523.197 245.757 527.837 244.384 531.603 241.581C535.369 238.778 538.016 234.728 539.072 230.153C539.282 229.227 537.853 228.857 537.642 229.784C536.667 234.046 534.201 237.819 530.688 240.422C527.176 243.025 522.848 244.286 518.487 243.979C517.54 243.913 517.569 245.39 518.512 245.455V245.455Z" fill="white"/>
<path d="M500.628 281.823C494.229 274.671 490.76 265.37 490.914 255.774C490.93 254.823 489.454 254.849 489.438 255.798C489.296 265.784 492.926 275.456 499.602 282.884C500.238 283.592 501.262 282.527 500.628 281.823V281.823Z" fill="white"/>
<path d="M516.808 202.485C514.971 202.746 513.098 202.546 511.357 201.904C509.616 201.262 508.062 200.198 506.834 198.807C506.206 198.092 505.183 199.157 505.807 199.868C507.171 201.398 508.888 202.572 510.81 203.285C512.732 203.999 514.8 204.231 516.832 203.961C517.026 203.952 517.209 203.869 517.343 203.73C517.478 203.591 517.555 203.405 517.558 203.211C517.554 203.016 517.473 202.83 517.332 202.694C517.192 202.558 517.003 202.483 516.808 202.485L516.808 202.485Z" fill="white"/>
<path d="M397.593 200.83C397.972 201.288 398.352 201.746 398.728 202.216C403.793 208.396 408.347 214.979 412.347 221.897C412.664 222.427 412.978 222.969 413.28 223.507C422.737 240.278 428.999 258.659 431.746 277.716C432.832 285.3 433.34 292.955 433.265 300.616C433.16 311.197 432.205 322.66 435.505 332.371C435.838 333.388 436.233 334.384 436.689 335.352L488.824 351.628C488.961 351.605 489.095 351.595 489.232 351.572L491.284 352.317C491.316 351.923 491.34 351.512 491.372 351.118C491.391 350.889 491.398 350.656 491.417 350.427C491.427 350.273 491.435 350.119 491.452 349.981C491.455 349.93 491.458 349.878 491.458 349.839C491.475 349.701 491.476 349.571 491.489 349.444C491.631 347.152 491.756 344.854 491.866 342.552C491.869 342.54 491.869 342.54 491.862 342.524C492.652 324.978 491.985 307.213 488.643 290.113C488.542 289.598 488.446 289.072 488.321 288.55C486.772 280.851 484.596 273.291 481.815 265.946C480.279 261.929 478.541 257.992 476.607 254.151C471.591 244.235 465.047 235.17 457.214 227.289C441.598 211.578 421.13 201.038 399.264 200.83C398.705 200.825 398.156 200.823 397.593 200.83Z" fill="#5FAF8A"/>
<path d="M397.504 201.528C421.855 214.789 441.409 235.386 453.388 260.393C456.063 265.731 457.879 271.456 458.771 277.36C459.453 283.138 458.576 288.994 456.23 294.319C454.142 299.328 451.426 304.21 450.593 309.639C450.207 312.424 450.415 315.259 451.202 317.959C451.989 320.658 453.338 323.161 455.16 325.303C459.561 330.757 465.66 334.305 471.745 337.567C478.501 341.189 485.576 344.844 490.172 351.205C490.729 351.975 491.892 351.066 491.336 350.297C483.339 339.229 468.844 336.503 459.15 327.426C454.626 323.19 451.352 317.566 451.893 311.193C452.367 305.621 455.163 300.585 457.32 295.531C459.685 290.37 460.75 284.709 460.423 279.041C459.835 273.112 458.242 267.325 455.713 261.93C450.212 249.693 442.822 238.397 433.812 228.455C423.593 217.052 411.498 207.481 398.051 200.157C397.218 199.704 396.677 201.078 397.504 201.528L397.504 201.528Z" fill="white"/>
<path d="M450.005 252.114C453.928 249.534 456.806 245.645 458.126 241.139C459.445 236.633 459.12 231.806 457.209 227.517C456.819 226.651 455.454 227.216 455.845 228.084C457.632 232.073 457.934 236.571 456.697 240.764C455.46 244.957 452.764 248.569 449.097 250.95C448.301 251.468 449.213 252.629 450.005 252.114V252.114Z" fill="white"/>
<path d="M457.623 291.919C448.207 290.061 439.837 284.723 434.183 276.968C433.623 276.2 432.46 277.109 433.019 277.876C438.918 285.935 447.639 291.472 457.442 293.384C458.376 293.566 458.552 292.099 457.623 291.919V291.919Z" fill="white"/>
<path d="M422.774 218.831C421.464 220.145 419.848 221.113 418.072 221.649C416.295 222.184 414.413 222.27 412.595 221.899C411.664 221.705 411.489 223.172 412.414 223.364C414.425 223.765 416.503 223.668 418.467 223.08C420.431 222.493 422.222 221.434 423.682 219.995C423.831 219.871 423.927 219.694 423.951 219.502C423.975 219.31 423.924 219.115 423.81 218.959C423.689 218.805 423.512 218.706 423.318 218.682C423.124 218.658 422.929 218.711 422.774 218.831L422.774 218.831Z" fill="white"/>
<path d="M131.275 378.018C138.492 378.018 145.415 380.885 150.518 385.989C155.622 391.092 158.489 398.014 158.489 405.232V405.232C158.488 411.545 156.293 417.662 152.279 422.535C148.265 427.407 142.682 430.733 136.486 431.943V476.454H119.115V378.018H131.275Z" fill="#3F3D56"/>
<path d="M797.889 638.756V648.076C793.939 653.126 789.869 658.076 785.679 662.926C785.229 663.456 784.769 663.976 784.299 664.506C783.589 665.336 782.859 666.156 782.129 666.976V638.756H797.889Z" fill="#CACACA"/>
<path d="M751.649 619.316C748.165 619.32 744.825 620.706 742.362 623.169C739.899 625.633 738.513 628.973 738.509 632.456V651.366C738.513 654.85 739.899 658.19 742.362 660.653C744.825 663.117 748.165 664.502 751.649 664.506H784.299C784.769 663.976 785.229 663.456 785.679 662.926C789.869 658.076 793.939 653.126 797.889 648.076C798.149 647.746 798.409 647.416 798.659 647.086C800.919 644.196 803.139 641.256 805.319 638.296C807.019 635.976 808.709 633.636 810.359 631.276C810.369 631.266 810.379 631.266 810.379 631.256C813.139 627.336 815.829 623.356 818.449 619.316H751.649Z" fill="#3F3D56"/>
<path d="M835.719 457.456C833.712 456.763 831.602 456.412 829.479 456.416H824.109C822.153 456.418 820.208 456.711 818.339 457.286C814.396 458.525 810.951 460.989 808.504 464.319C806.056 467.65 804.734 471.673 804.729 475.806V633.556C804.729 634.146 804.759 634.726 804.809 635.296C804.896 636.309 805.067 637.312 805.319 638.296C807.019 635.976 808.709 633.636 810.359 631.276C810.369 631.266 810.379 631.266 810.379 631.256C813.139 627.336 815.829 623.356 818.449 619.316C819.859 617.146 821.259 614.956 822.629 612.756C832.529 596.873 841.297 580.312 848.869 563.196V475.806C848.865 471.758 847.595 467.813 845.237 464.523C842.879 461.232 839.551 458.762 835.719 457.456Z" fill="#3F3D56"/>
<path d="M173.859 638.756V657.586C169.359 652.206 165.009 646.706 160.809 641.086C160.229 640.316 159.659 639.536 159.089 638.756H173.859Z" fill="#CACACA"/>
<path d="M204.339 619.316H145.609C147.459 622.166 149.342 624.983 151.259 627.766C153.799 631.476 156.409 635.14 159.089 638.756C159.659 639.536 160.229 640.316 160.809 641.086C165.019 646.706 169.369 652.206 173.859 657.586C174.699 658.606 175.549 659.616 176.409 660.626C177.509 661.926 178.626 663.22 179.759 664.506H204.339C207.822 664.502 211.16 663.116 213.622 660.652C216.084 658.189 217.467 654.849 217.469 651.366V632.456C217.467 628.974 216.084 625.634 213.622 623.17C211.16 620.707 207.822 619.321 204.339 619.316V619.316Z" fill="#3F3D56"/>
<path d="M140.829 458.606C138.06 457.171 134.988 456.42 131.869 456.416H126.509C123.973 456.413 121.461 456.913 119.119 457.886C115.571 459.352 112.537 461.837 110.401 465.026C108.265 468.216 107.123 471.968 107.119 475.806V543.576C117.216 570.121 130.119 595.512 145.609 619.316C147.459 622.166 149.342 624.983 151.259 627.766V475.806C151.256 472.26 150.283 468.783 148.444 465.751C146.606 462.719 143.972 460.248 140.829 458.606V458.606Z" fill="#3F3D56"/>
<path d="M359.293 751.489L376.909 747.447L369.703 677.575L343.703 683.541L359.293 751.489Z" fill="#9E616A"/>
<path d="M375.319 690.866C374.958 689.635 374.714 688.373 374.589 687.096C374.443 685.588 374.148 684.097 373.709 682.646C373.208 681.326 372.589 680.054 371.859 678.846C371.509 678.206 371.139 677.566 370.809 676.916C370.477 676.267 370.189 675.595 369.949 674.906C359.639 644.456 345.249 603.076 335.269 578.856C329.399 564.606 293.299 559.866 259.239 558.656C255.089 558.506 250.969 558.406 246.939 558.356C245.549 558.336 244.169 558.316 242.799 558.306C239.299 558.286 235.889 558.286 232.609 558.326C232.179 558.326 231.749 558.326 231.319 558.336C228.929 558.356 226.612 558.39 224.369 558.436C208.949 558.736 197.619 559.436 195.599 559.566L177.609 548.256L174.099 546.046L173.729 548.256L170.899 565.116L166.069 593.886L178.179 597.286L186.039 599.486L232.609 612.546L242.509 615.326L242.569 615.346L259.239 615.316L304.819 615.236L307.019 621.066C306.229 622.293 305.709 623.674 305.494 625.117C305.279 626.561 305.374 628.033 305.772 629.437C306.171 630.841 306.863 632.144 307.804 633.259C308.745 634.375 309.912 635.277 311.229 635.906L312.939 636.716L333.769 691.836C333.833 696.822 335.39 701.674 338.239 705.766C338.589 706.276 338.969 706.776 339.369 707.266L339.829 707.816L347.839 723.486L352.609 722.386L372.909 717.736L373.009 717.536C373.019 717.506 373.279 716.956 373.659 715.996V715.966C375.249 711.996 378.769 701.146 375.319 690.866Z" fill="#2F2E41"/>
<path d="M424.809 756.136C424.051 752.777 422.635 749.602 420.644 746.792C418.654 743.982 416.127 741.594 413.209 739.765C410.291 737.935 407.041 736.701 403.645 736.134C400.248 735.566 396.773 735.676 393.419 736.456L379.349 730.106L375.409 732.876L359.069 744.336L357.719 744.646L353.339 745.646L359.389 772.016L425.009 756.966L424.809 756.136Z" fill="#2F2E41"/>
<path d="M337.769 715.476L331.819 763.716L331.619 765.296L330.739 772.486C327.309 771.086 323.889 769.636 320.509 768.146C317.349 766.756 314.212 765.323 311.099 763.846V715.486L337.769 715.476Z" fill="#9E616A"/>
<path d="M208.655 383.844C228.577 383.844 244.728 367.693 244.728 347.771C244.728 327.848 228.577 311.697 208.655 311.697C188.732 311.697 172.581 327.848 172.581 347.771C172.581 367.693 188.732 383.844 208.655 383.844Z" fill="#9E616A"/>
<path d="M341.599 733.886C340.599 732.516 339.559 731.086 339.499 729.716C339.269 724.886 339.029 720.106 338.779 715.426C338.599 712.156 338.419 708.926 338.239 705.766C338.219 705.366 338.189 704.966 338.169 704.576C337.859 699.346 339.409 693.826 340.899 688.476C341.389 686.726 341.879 684.956 342.319 683.186C343.419 679.242 343.882 675.147 343.689 671.056C341.129 638.666 329.689 608.206 324.559 603.076C316.759 595.276 281.489 577.256 259.239 566.296C255.289 564.346 251.749 562.626 248.849 561.226C246.279 559.976 244.209 558.986 242.799 558.306C241.719 557.796 241.019 557.466 240.779 557.346L240.659 557.286L232.609 558.186L231.319 558.336L224.219 559.136L178.029 564.316L170.899 565.116L160.809 566.256L151.699 567.276L151.359 567.306L151.299 567.646C151.299 567.656 151.279 567.726 151.259 567.856C149.692 577.741 149.692 587.811 151.259 597.696C152.439 604.406 154.669 611.226 158.629 616.966C159.169 617.746 159.729 618.496 160.329 619.216C160.349 619.254 160.376 619.288 160.409 619.316C160.539 619.476 160.669 619.636 160.809 619.796V619.806C165.339 625.074 171.419 628.774 178.179 630.376C179.179 630.646 180.199 630.866 181.249 631.046C192.439 633.026 205.079 634.846 217.469 636.446C222.599 637.106 227.689 637.726 232.609 638.306C242.459 639.466 251.659 640.446 259.239 641.226C269.859 642.306 277.319 642.976 278.979 643.116L297.529 729.656C296.073 732.118 295.492 735 295.881 737.834C296.269 740.668 297.604 743.287 299.669 745.266L301.189 746.736L302.949 754.976L308.749 762.736L309.479 763.716H335.069L335.209 763.546C335.299 763.426 344.299 751.866 343.689 738.096C343.629 736.676 342.639 735.326 341.599 733.886Z" fill="#2F2E41"/>
<path d="M340.9 443.851C338.962 443.322 336.932 443.223 334.952 443.563C332.972 443.903 331.09 444.673 329.44 445.818C327.79 446.964 326.411 448.457 325.4 450.193C324.39 451.93 323.772 453.866 323.591 455.867L293.618 465.235L294.868 484.838L337.01 471.014C340.391 471.096 343.685 469.934 346.267 467.749C348.849 465.565 350.54 462.509 351.02 459.161C351.499 455.813 350.734 452.405 348.869 449.583C347.004 446.762 344.168 444.722 340.9 443.851V443.851Z" fill="#9E616A"/>
<path d="M321.344 476.29L298.943 484.768L298.37 485.879C297.69 487.199 296.757 488.371 295.624 489.33C294.491 490.288 293.18 491.014 291.767 491.466C290.353 491.918 288.864 492.087 287.385 491.964C285.906 491.84 284.466 491.427 283.147 490.747V490.747L232.797 509.804C232.797 509.804 210.311 487.302 194.302 467.221L199.758 433.662C201.022 425.875 203.708 418.388 207.682 411.574C240.513 418.773 259.359 464.669 259.359 464.669L318.529 453.379L321.344 476.29Z" fill="#157347"/>
<path d="M203.528 381.916C194.498 384.355 184.541 381.112 177.494 374.961C170.446 368.81 166.037 360.094 163.497 351.091C161.637 344.497 160.755 337.178 163.69 330.988C166.626 324.798 174.527 320.622 180.623 323.748C176.863 319.367 178.742 312.121 183.134 308.373C187.525 304.625 193.556 303.55 199.3 302.963C207.636 302.11 216.247 302.015 224.179 304.715C232.111 307.416 239.319 313.32 241.801 321.324C244.337 322.504 247.192 322.81 249.92 322.194C252.648 321.578 255.095 320.075 256.878 317.92C257.337 320.395 256.968 322.953 255.828 325.198C254.687 327.442 252.838 329.248 250.568 330.337L262.722 326.396C264.812 330.821 261.149 336.296 256.466 337.713C251.782 339.13 246.726 337.581 242.282 335.534C237.837 333.488 233.53 330.9 228.703 330.101C223.875 329.303 218.204 330.854 215.971 335.208C214.802 337.489 214.741 340.16 214.062 342.631C213.383 345.102 211.662 347.664 209.108 347.866C207.493 347.994 205.913 347.134 204.303 347.31C203.316 347.505 202.406 347.983 201.686 348.687C200.966 349.39 200.466 350.289 200.249 351.272C199.848 353.244 199.843 355.277 200.235 357.252L203.322 380.85L203.528 381.916Z" fill="#2F2E41"/>
<path d="M248.849 561.226L246.939 558.356L232.999 537.446L232.719 537.036L237.029 514.676L238.369 507.696L241.299 492.506L240.449 457.736L239.839 433.136L239.749 429.276L236.659 419.856C235.194 415.451 232.841 411.394 229.745 407.934C226.649 404.475 222.875 401.689 218.659 399.746L197.859 390.226C195.411 389.112 192.621 389.016 190.102 389.958C187.583 390.901 185.542 392.806 184.428 395.254C184.335 395.459 184.248 395.666 184.169 395.876C181.319 396.266 168.949 398.346 158.459 406.486C151.11 412.078 145.98 420.092 143.979 429.106C143.959 429.176 143.949 429.246 143.929 429.316C142.539 435.526 141.499 445.326 140.829 458.606C140.379 467.386 140.096 477.673 139.979 489.466C139.792 509.124 140.898 528.773 143.289 548.286C143.519 550.146 143.759 551.996 144.009 553.856C144.219 555.416 145.719 556.906 147.169 558.336C148.499 559.646 149.869 561.006 150.059 562.236C150.229 563.316 149.539 564.446 148.719 565.626C148.619 565.776 148.509 565.926 148.409 566.076C147.389 567.526 146.339 569.036 146.609 570.626C147.239 574.206 147.609 577.846 147.959 581.366C148.35 586.213 149.051 591.029 150.059 595.786C150.409 597.246 150.809 598.716 151.259 600.186C152.309 603.636 153.579 607.076 154.819 610.436C155.889 613.356 156.999 616.356 157.939 619.316C158.119 619.866 158.289 620.406 158.449 620.946L158.529 621.226L158.819 621.276H158.839C159.233 620.574 159.702 619.917 160.239 619.316C160.263 619.278 160.294 619.244 160.329 619.216C160.469 619.046 160.629 618.866 160.809 618.676C162.999 616.286 167.759 611.996 178.179 604.766C180.509 603.156 183.119 601.406 186.039 599.486C196.749 592.476 211.709 583.346 232.609 571.556C237.849 568.596 243.472 565.466 249.479 562.166L248.849 561.226Z" fill="#5FAF8A"/>
<path d="M361.019 781.206C358.59 778.767 355.702 776.834 352.521 775.517C349.341 774.201 345.931 773.528 342.489 773.536L331.619 765.296L330.189 764.206L320.509 768.146C323.889 769.636 327.309 771.086 330.739 772.486C341.469 776.866 352.426 780.78 363.609 784.226C362.823 783.156 361.957 782.146 361.019 781.206V781.206Z" fill="#2F2E41"/>
<path d="M602.45 750.808L588.836 744.297L607.537 687.392L627.63 697.002L602.45 750.808Z" fill="#9E616A"/>
<path d="M693.719 741.636C689.759 744.106 685.749 746.506 681.689 748.836V748.866L681.629 748.876L681.609 748.886L680.069 749.266L677.859 743.426L672.759 729.956L658.859 693.256L680.469 687.926L681.689 692.876L690.829 729.946L693.449 740.546L693.719 741.636Z" fill="#9E616A"/>
<path d="M638.604 503.475C640.546 506.628 643.643 508.898 647.236 509.799C650.828 510.7 654.63 510.162 657.83 508.298C658.474 507.909 659.084 507.466 659.655 506.976L702.696 531.676L700.826 506.321L660.24 486.753C658.032 484.534 655.15 483.112 652.046 482.707C648.942 482.303 645.792 482.94 643.089 484.519C639.995 486.376 637.766 489.387 636.891 492.888C636.017 496.39 636.57 500.095 638.428 503.189C638.485 503.285 638.544 503.38 638.604 503.475Z" fill="#9E616A"/>
<path d="M684.191 522.375L691.799 527.012L725.968 547.848C728.211 549.251 730.709 550.199 733.318 550.637C735.927 551.076 738.597 550.995 741.175 550.402C743.754 549.808 746.19 548.712 748.345 547.177C750.499 545.642 752.331 543.698 753.734 541.455L753.745 541.437C756.275 537.269 757.17 532.311 756.258 527.521L741.071 451.648C740.51 448.669 739.313 445.847 737.56 443.374C735.808 440.901 733.543 438.835 730.919 437.318C728.295 435.801 725.374 434.869 722.357 434.585C719.339 434.3 716.296 434.671 713.435 435.671C708.625 437.361 704.641 440.82 702.291 445.343C699.942 449.867 699.404 455.116 700.787 460.022L716.668 513.868L692.326 502.519L684.191 522.375Z" fill="#5FAF8A"/>
<path d="M824.299 597.186C824.289 597.156 824.269 597.046 824.239 596.876L824.209 596.766C824.139 596.406 824.059 596.006 823.969 595.566C821.929 585.434 819.308 575.428 816.119 565.596C814.23 559.576 811.727 553.765 808.649 548.256C808.549 548.076 808.439 547.896 808.329 547.716L807.959 547.116L804.849 548.256L804.729 548.296L757.449 565.626L743.779 570.636L743.349 570.796L741.019 580.296L708.329 576.066L681.689 572.616L674.039 571.626C670.723 571.194 667.353 571.426 664.128 572.308C660.902 573.191 657.884 574.706 655.249 576.766C652.5 578.898 650.202 581.555 648.49 584.584C646.779 587.612 645.687 590.952 645.279 594.406C645.179 595.166 645.119 595.936 645.089 596.696L642.779 682.866V682.976L643.849 685.116L666.199 729.956H681.689L690.829 729.946H698.259L682.809 690.856L683.159 690.326C684.613 688.098 685.529 685.562 685.836 682.92C686.143 680.277 685.833 677.599 684.929 675.096L686.669 670.056C690.279 659.646 688.569 654.646 686.409 648.326C684.469 643.187 683.329 637.781 683.029 632.296L682.669 625.166C691.739 626.756 700.189 628.526 708.329 630.306C711.049 630.896 713.742 631.493 716.409 632.096C723.999 633.786 731.329 635.416 738.509 636.776C753.049 639.546 766.979 641.236 781.289 640.186C781.569 640.166 781.849 640.146 782.129 640.116C785.609 639.836 789.109 639.386 792.649 638.756C794.639 638.396 796.639 637.986 798.659 637.506C799.219 637.366 799.789 637.226 800.349 637.086C801.904 636.676 803.402 636.075 804.809 635.296C806.81 634.179 808.673 632.83 810.359 631.276C810.369 631.266 810.379 631.266 810.379 631.256C813.139 627.336 815.829 623.356 818.449 619.316C819.859 617.146 821.259 614.956 822.629 612.756C824.629 607.266 825.389 601.726 824.299 597.186Z" fill="#2F2E41"/>
<path d="M785.85 552.38C785.7 551.74 785.51 551.09 785.31 550.46C783.722 545.688 781.873 541.008 779.77 536.44C777.41 531.24 774.58 525.67 771.21 519.64C769.58 516.72 767.827 513.683 765.95 510.53C765.01 508.95 764.033 507.34 763.02 505.7C762.98 505.625 762.937 505.551 762.89 505.48L762.6 505L715.82 511.26L698.4 513.59L697.36 522.27L697.11 524.42C697.1 524.42 697.1 524.42 697.11 524.43L696.41 530.29V530.3L695.48 538.04L695.4 538.03L669.55 534.68L642.91 531.23L628.6 529.38C625.284 528.948 621.914 529.18 618.689 530.062C615.463 530.945 612.445 532.46 609.81 534.52C607.061 536.652 604.763 539.309 603.052 542.338C601.34 545.366 600.248 548.705 599.84 552.16C599.75 552.86 599.69 553.58 599.66 554.29L586.16 586.28C578.082 605.412 572.937 625.653 570.9 646.32L561 677.97L562.41 678.1L583.39 680.05L588.93 680.57L601.13 662.76C602.52 660.73 603.84 658.64 605.07 656.5C607.095 653.005 608.895 649.384 610.46 645.66L636.85 582.86C638.89 583.21 640.91 583.543 642.91 583.86C652.16 585.36 661.04 586.583 669.55 587.53C697.22 590.62 721.18 590.86 742.51 588.24C748.5 587.51 754.29 586.55 759.88 585.36C761.93 584.93 763.953 584.467 765.95 583.97C766.42 583.86 766.88 583.75 767.34 583.63C771.473 582.564 775.272 580.479 778.391 577.565C781.509 574.651 783.847 571.001 785.19 566.95C786.793 562.255 787.022 557.2 785.85 552.38V552.38Z" fill="#2F2E41"/>
<path d="M725.154 392.127C743.025 392.127 757.512 377.317 757.512 359.047C757.512 340.778 743.025 325.968 725.154 325.968C707.283 325.968 692.795 340.778 692.795 359.047C692.795 377.317 707.283 392.127 725.154 392.127Z" fill="#9E616A"/>
<path d="M801.989 535.426C801.939 535.056 801.879 534.686 801.799 534.316C801.029 530.256 799.029 526.276 797.099 522.416C795.259 518.736 793.509 515.256 792.789 511.796C792.079 508.386 792.499 504.966 792.909 501.666C793.349 498.086 793.809 494.386 792.779 490.796C787.555 472.462 780.381 454.741 771.379 437.936C769.108 430.547 764.753 423.97 758.838 418.993C752.923 414.016 745.698 410.85 738.029 409.876C738.924 408.204 739.297 406.302 739.099 404.416C738.974 403.198 738.608 402.016 738.022 400.94C737.437 399.863 736.644 398.914 735.689 398.146C734.772 397.407 733.717 396.857 732.586 396.528C731.455 396.198 730.27 396.096 729.099 396.226L714.059 397.916C711.648 398.219 709.454 399.461 707.954 401.373C706.454 403.285 705.769 405.712 706.049 408.126C706.133 408.869 706.301 409.601 706.549 410.306C692.589 428.086 685.419 444.286 684.759 459.606V459.616C684.679 461.386 684.689 463.158 684.789 464.926C685.105 470.646 686.348 476.276 688.469 481.596C690.973 487.743 694.326 493.509 698.429 498.726C699.269 499.786 700.139 500.826 701.039 501.846C701.879 502.846 702.819 503.896 703.859 504.996L706.489 509.116L708.939 512.966L722.039 543.196L728.709 542.976L729.639 549.626L729.859 551.176L734.179 566.646L734.499 567.806L740.409 564.996L775.669 548.256L802.029 535.736L801.989 535.426Z" fill="#157347"/>
<path opacity="0.2" d="M688.865 481.436C691.872 488.8 696.098 495.605 701.367 501.564C702.269 502.641 703.222 503.7 704.219 504.76L709.338 512.792C728.207 498.649 743.495 442.96 743.495 442.96L722.206 438.818L688.865 481.436Z" fill="black"/>
<path d="M675.976 395.217C677.84 398.42 678.381 402.223 677.484 405.818C676.587 409.413 674.322 412.517 671.172 414.468C670.525 414.854 669.848 415.186 669.147 415.461L670.654 465.064L649.173 451.542L651.035 406.511C650.121 403.515 650.225 400.3 651.33 397.368C652.435 394.437 654.48 391.954 657.145 390.307C660.226 388.443 663.92 387.88 667.416 388.74C670.912 389.601 673.923 391.815 675.787 394.896C675.851 395.002 675.914 395.109 675.976 395.217Z" fill="#9E616A"/>
<path d="M672.542 446.341L648.919 449.7L649.935 498.618C649.994 502.108 650.944 505.524 652.695 508.543C654.447 511.562 656.941 514.083 659.941 515.867V515.867C663.606 518.023 667.873 518.93 672.099 518.45C676.324 517.97 680.279 516.13 683.367 513.207L739.137 459.564C743.061 455.842 745.41 450.757 745.699 445.357C745.989 439.956 744.198 434.649 740.695 430.528C737.263 426.465 732.357 423.932 727.057 423.486C721.757 423.041 716.497 424.718 712.435 428.151C712.276 428.285 712.119 428.422 711.964 428.561C711.413 429.054 710.889 429.576 710.394 430.125L673.568 472.489L672.542 446.341Z" fill="#5FAF8A"/>
<path d="M694.319 740.386L693.449 740.546L681.689 742.716L677.859 743.426L671.829 744.536L673.969 753.166C676.539 751.776 679.079 750.346 681.609 748.886L681.629 748.876L681.689 748.866V748.836C685.749 746.516 689.759 744.116 693.719 741.636C693.999 741.466 694.279 741.296 694.559 741.106L694.319 740.386Z" fill="#2F2E41"/>
<path d="M606.799 741.516L592.069 734.456L589.759 733.346L586.069 742.406L560.309 748.076C559.035 748.355 557.884 749.035 557.024 750.015C556.164 750.995 555.64 752.224 555.528 753.523C555.416 754.822 555.723 756.123 556.403 757.236C557.083 758.348 558.102 759.214 559.309 759.706L584.479 769.976L592.469 762.786L590.509 772.436L599.989 776.306L610.379 743.236L606.799 741.516Z" fill="#2F2E41"/>
<path d="M811.742 344.701C806.241 338.287 803.626 329.777 799.229 322.493C794.832 315.209 787.18 308.69 779.097 310.385C773.524 311.554 769.218 316.471 767.038 321.953C764.858 327.435 764.449 333.481 764.067 339.403C764.202 327.232 756.184 315.433 745.138 311.549C734.092 307.666 720.873 311.998 713.933 321.776C710.904 318.968 706.95 317.37 702.821 317.283C698.692 317.197 694.675 318.628 691.531 321.306C685.323 326.854 683.949 337.415 688.515 344.493C693.08 351.57 702.968 354.207 710.224 350.282L712.789 352.641C711.345 357.692 714.146 363.657 718.853 365.558C722.669 367.1 728.058 366.843 729.486 370.849C730.484 373.647 728.619 376.635 726.634 378.785C724.65 380.936 722.294 383.157 722.056 386.133C721.696 390.623 726.336 393.769 730.554 394.716C740.726 397.001 752.012 392.291 757.874 383.314C757.987 383.141 758.11 382.968 758.243 382.794C761.532 378.588 763.929 373.755 765.287 368.592C766.646 363.428 766.937 358.041 766.143 352.761C765.814 350.686 766.146 349.143 767.576 348.652C773.759 346.528 791.081 350.985 796.323 355.014C801.565 359.042 805.763 364.373 810.813 368.661C815.863 372.95 822.297 376.258 828.709 375.09C833.844 374.155 838.212 370.427 841.151 365.93C844.089 361.433 845.78 356.192 847.295 350.983C835.94 357.542 820.399 354.796 811.742 344.701Z" fill="#2F2E41"/>
<path d="M708.325 541.882V732.082C704.705 734.572 701.038 736.996 697.325 739.352V554.492C697.325 549.132 695.525 544.782 693.315 544.772H526.825C524.605 544.782 522.815 549.132 522.805 554.492V799.952C520.585 800.172 518.365 800.382 516.145 800.562C515.225 800.642 514.295 800.712 513.375 800.782C512.845 799.802 512.325 798.812 511.805 797.812V541.882C511.805 540.402 511.865 538.912 511.965 537.442C512.865 524.962 517.335 515.842 522.565 515.822H697.565C698.198 515.826 698.824 515.959 699.405 516.212C703.785 518.072 707.245 526.232 708.115 536.782C708.255 538.462 708.335 540.172 708.325 541.882Z" fill="#E4E4E4"/>
<path d="M441.195 541.882V799.192C441.045 799.432 440.895 799.662 440.745 799.902C436.985 799.522 433.242 799.086 429.515 798.592V554.492C429.515 549.132 427.605 544.782 425.255 544.772H248.545C246.195 544.782 244.285 549.132 244.285 554.492V723.952C240.335 721.042 236.442 718.059 232.605 715.002V541.882C232.605 540.402 232.665 538.912 232.775 537.442C233.725 524.962 238.475 515.842 244.035 515.822H429.765C430.434 515.824 431.097 515.957 431.715 516.212C436.365 518.072 440.045 526.232 440.975 536.782C441.125 538.462 441.195 540.172 441.195 541.882Z" fill="#E4E4E4"/>
<path d="M381.974 456.372L393.555 507.327L400.955 515.433H406.294L384.291 422.787L383.202 438.526V438.537L381.974 456.372Z" fill="#3F3D56"/>
<path d="M420.539 518.036C420.505 517.958 420.462 517.884 420.409 517.816C420.302 517.576 420.149 517.358 419.959 517.176L418.609 515.826L411.509 508.716C410.988 508.206 410.288 507.92 409.559 507.916H409.529L404.519 507.946L400.209 507.976L394.189 508.016L353.189 508.276L326.239 508.446C325.509 508.456 324.812 508.751 324.298 509.269C323.783 509.787 323.493 510.486 323.489 511.216C323.493 511.62 323.582 512.019 323.749 512.386L324.269 513.496L325.359 515.826L326.779 518.876L327.479 520.376C327.702 520.854 328.057 521.258 328.501 521.541C328.946 521.825 329.462 521.976 329.989 521.976H417.999C418.462 521.967 418.916 521.845 419.32 521.619C419.725 521.394 420.068 521.072 420.319 520.683C420.569 520.294 420.721 519.849 420.759 519.387C420.798 518.926 420.722 518.462 420.539 518.036H420.539Z" fill="#3F3D56"/>
<path opacity="0.17" d="M326.78 518.874L327.475 520.379C327.701 520.855 328.057 521.258 328.502 521.54C328.946 521.823 329.461 521.975 329.988 521.978H418.002C418.465 521.969 418.918 521.847 419.323 521.622C419.727 521.396 420.07 521.075 420.321 520.686C420.571 520.296 420.722 519.851 420.76 519.39C420.798 518.929 420.722 518.465 420.538 518.04C420.507 517.961 420.464 517.887 420.411 517.82L326.78 518.874Z" fill="black"/>
<path opacity="0.17" d="M383.202 438.526V438.537L402.044 515.433H406.294L384.291 422.787L383.202 438.526Z" fill="black"/>
<path d="M412.759 223.336L409.999 222.966C409.241 222.868 408.476 223.072 407.869 223.536L406.219 224.806L387.849 247.786C387.242 248.255 386.847 248.946 386.749 249.706L385.719 257.526L360.079 452.616C359.988 453.339 360.169 454.07 360.589 454.666L372.669 487.966L373.029 488.486L373.809 489.596C374.211 490.16 374.799 490.564 375.469 490.736L377.219 491.176C377.616 491.276 378.031 491.29 378.434 491.218C378.837 491.145 379.221 490.988 379.559 490.756C379.898 490.528 380.185 490.23 380.399 489.881C380.613 489.533 380.749 489.142 380.799 488.736L383.929 464.956V464.946L385.929 449.686L387.619 436.816V436.806L415.259 226.576C415.359 225.817 415.153 225.05 414.687 224.442C414.221 223.835 413.532 223.438 412.773 223.338L412.759 223.336Z" fill="#3F3D56"/>
<path opacity="0.17" d="M406.215 224.807L372.667 487.971L373.031 488.486L373.809 489.593C374.21 490.157 374.798 490.562 375.469 490.734L377.222 491.174C377.618 491.272 378.031 491.286 378.434 491.214C378.836 491.142 379.219 490.985 379.556 490.755C379.894 490.525 380.18 490.226 380.394 489.878C380.609 489.53 380.747 489.141 380.801 488.736L415.256 226.579C415.356 225.818 415.149 225.048 414.682 224.439C414.214 223.83 413.524 223.432 412.763 223.332L409.996 222.968C409.62 222.917 409.238 222.942 408.873 223.04C408.507 223.138 408.164 223.309 407.865 223.541L406.215 224.807Z" fill="black"/>
<path d="M405.226 232.333L387.423 257.744L366.263 418.745L377.735 441.504L405.226 232.333Z" fill="#E6E6E6"/>
<path d="M578.645 456.372L567.064 507.327L559.664 515.433H554.325L576.329 422.787L577.417 438.526V438.537L578.645 456.372Z" fill="#3F3D56"/>
<path d="M634.379 508.446L566.439 508.016L560.409 507.976L556.109 507.946L551.099 507.916H551.059C550.332 507.918 549.635 508.205 549.119 508.716L540.659 517.176C540.472 517.361 540.319 517.578 540.209 517.816C540.156 517.884 540.112 517.958 540.079 518.036C539.896 518.462 539.82 518.926 539.859 519.387C539.897 519.849 540.048 520.294 540.299 520.683C540.55 521.072 540.893 521.394 541.298 521.619C541.702 521.845 542.156 521.967 542.619 521.976H630.629C631.157 521.974 631.674 521.823 632.12 521.54C632.566 521.257 632.922 520.854 633.149 520.376L633.839 518.876L635.259 515.826L636.869 512.386C637.041 512.02 637.13 511.621 637.129 511.216C637.125 510.486 636.835 509.787 636.32 509.269C635.806 508.751 635.109 508.456 634.379 508.446V508.446Z" fill="#3F3D56"/>
<path opacity="0.17" d="M633.839 518.874L633.144 520.379C632.918 520.855 632.562 521.258 632.118 521.54C631.673 521.823 631.158 521.975 630.631 521.978H542.617C542.155 521.969 541.701 521.847 541.297 521.622C540.892 521.396 540.549 521.075 540.299 520.686C540.048 520.296 539.897 519.851 539.859 519.39C539.821 518.929 539.897 518.465 540.081 518.04C540.112 517.961 540.155 517.887 540.209 517.82L633.839 518.874Z" fill="black"/>
<path opacity="0.17" d="M577.417 438.526V438.537L558.575 515.433H554.325L576.329 422.787L577.417 438.526Z" fill="black"/>
<path d="M600.539 452.616L573.869 249.706C573.771 248.946 573.376 248.255 572.769 247.786L554.409 224.806L552.759 223.536C552.148 223.074 551.379 222.869 550.619 222.966L547.859 223.336C547.098 223.434 546.407 223.831 545.938 224.439C545.469 225.046 545.261 225.815 545.359 226.576V226.576L572.999 436.816V436.826L574.689 449.686L576.699 464.956V464.976L579.819 488.736C579.869 489.143 580.006 489.535 580.222 489.884C580.438 490.232 580.727 490.53 581.069 490.756C581.405 490.988 581.787 491.145 582.189 491.217C582.59 491.29 583.003 491.276 583.399 491.176L585.149 490.736C585.819 490.564 586.407 490.16 586.809 489.596L587.589 488.486L587.949 487.966L600.029 454.666C600.453 454.072 600.635 453.34 600.539 452.616V452.616Z" fill="#3F3D56"/>
<path opacity="0.17" d="M554.404 224.807L587.952 487.971L587.588 488.486L586.81 489.593C586.409 490.157 585.821 490.562 585.15 490.734L583.397 491.174C583.001 491.272 582.588 491.286 582.185 491.214C581.783 491.142 581.401 490.985 581.063 490.755C580.725 490.525 580.44 490.226 580.225 489.878C580.011 489.53 579.872 489.141 579.818 488.736L545.363 226.579C545.263 225.818 545.47 225.048 545.938 224.439C546.405 223.83 547.095 223.432 547.856 223.332L550.624 222.968C550.999 222.917 551.381 222.942 551.747 223.04C552.112 223.138 552.455 223.309 552.755 223.541L554.404 224.807Z" fill="black"/>
<path d="M555.393 232.333L573.196 257.744L594.356 418.745L582.884 441.504L555.393 232.333Z" fill="#E4E4E4"/>
<path d="M224.499 556.936C224.502 557.439 224.458 557.941 224.369 558.436C224.329 558.676 224.279 558.906 224.219 559.136C223.732 560.996 222.642 562.641 221.121 563.815C219.599 564.99 217.731 565.627 215.809 565.626H178.179V655.376C178.181 657.273 177.559 659.118 176.409 660.626C175.549 659.616 174.699 658.606 173.859 657.586C169.359 652.206 165.009 646.706 160.809 641.086V565.626H144.009C141.769 565.625 139.616 564.758 138 563.207C136.384 561.655 135.43 559.54 135.337 557.301C135.244 555.063 136.019 552.876 137.501 551.196C138.983 549.516 141.057 548.473 143.289 548.286C143.529 548.266 143.769 548.256 144.009 548.256H215.809C218.112 548.255 220.322 549.169 221.951 550.797C223.581 552.425 224.497 554.633 224.499 556.936V556.936Z" fill="#3F3D56"/>
<path d="M824.129 556.936C824.129 558.695 823.596 560.413 822.6 561.863C821.604 563.313 820.191 564.426 818.549 565.056C817.77 565.354 816.951 565.536 816.119 565.596C815.899 565.616 815.669 565.626 815.449 565.626H798.659V647.086C798.409 647.416 798.149 647.746 797.889 648.076C793.939 653.126 789.869 658.076 785.679 662.926C784.341 662.173 783.229 661.076 782.457 659.748C781.686 658.421 781.282 656.912 781.289 655.376V565.626H743.649C742.538 565.63 741.437 565.416 740.409 564.996C739.113 564.478 737.962 563.655 737.053 562.596C736.144 561.538 735.505 560.275 735.189 558.916V558.906C734.722 556.932 734.97 554.856 735.889 553.046C735.879 553.036 735.879 553.036 735.889 553.036C736.286 552.24 736.806 551.511 737.429 550.876C738.239 550.047 739.206 549.388 740.274 548.938C741.342 548.488 742.49 548.256 743.649 548.256H815.449C817.751 548.256 819.958 549.17 821.586 550.797C823.214 552.424 824.129 554.632 824.129 556.933L824.129 556.936Z" fill="#3F3D56"/>
<path d="M823.554 389.598C819.98 389.598 816.441 390.302 813.14 391.67C809.838 393.038 806.838 395.042 804.31 397.569C801.783 400.096 799.779 403.097 798.411 406.398C797.043 409.7 796.339 413.239 796.339 416.813V416.813C796.34 423.126 798.536 429.243 802.55 434.115C806.564 438.988 812.147 442.314 818.343 443.524V488.034H835.714V389.598H823.554Z" fill="#3F3D56"/>
<path d="M348.405 488.973C346.672 487.956 344.738 487.331 342.738 487.142C340.738 486.954 338.721 487.206 336.829 487.882C334.937 488.557 333.216 489.639 331.787 491.051C330.358 492.464 329.257 494.172 328.56 496.056L297.181 497.28L292.954 511.896L337.563 514.18C340.805 515.141 344.288 514.879 347.351 513.443C350.414 512.008 352.844 509.499 354.18 506.392C355.516 503.285 355.667 499.796 354.602 496.585C353.538 493.375 351.333 490.666 348.405 488.973H348.405Z" fill="#9E616A"/>
<path d="M322.63 515.756L290.398 515.354L286.318 515.299L220.74 514.473C220.74 514.473 202.932 497.483 187.426 479.992L189.599 464.271C191.719 448.843 199.372 434.711 211.134 424.505C233.343 439.345 246.223 468.718 246.223 468.718L267.818 478.382C283.015 479.061 297.824 483.398 310.988 491.025L318.089 495.139L322.63 515.756Z" fill="#157347"/>
<path d="M423.899 797.816H540.159C532.229 798.976 524.226 799.893 516.149 800.566H447.909C439.829 799.896 431.826 798.98 423.899 797.816Z" fill="#CCCCCC"/>
<path d="M447.273 739.287C449.523 718.98 461.821 698.837 481.067 691.981C473.721 712.95 474.029 735.841 481.936 756.605C485.014 764.602 489.271 773.175 486.584 781.312C484.913 786.375 480.711 790.288 475.988 792.762C471.266 795.237 466.004 796.456 460.808 797.652L459.794 798.514C451.271 779.945 445.023 759.594 447.273 739.287Z" fill="#CCCCCC"/>
<path d="M481.264 692.362C470.173 705.128 463.387 721.065 461.869 737.908C461.478 741.528 461.66 745.187 462.408 748.751C463.249 752.198 464.998 755.358 467.474 757.901C469.734 760.319 472.326 762.53 473.959 765.455C474.773 766.964 475.258 768.629 475.384 770.339C475.509 772.05 475.271 773.767 474.686 775.379C473.333 779.434 470.603 782.761 467.821 785.922C464.732 789.431 461.468 793.027 460.196 797.641C460.042 798.2 459.184 797.929 459.338 797.37C461.55 789.342 469.252 784.696 472.858 777.443C474.541 774.059 475.214 770.147 473.547 766.62C472.089 763.537 469.418 761.254 467.109 758.826C464.658 756.381 462.843 753.372 461.822 750.063C460.895 746.55 460.572 742.904 460.868 739.281C461.405 731.116 463.221 723.086 466.252 715.485C469.663 706.792 474.535 698.745 480.659 691.694C481.039 691.258 481.641 691.928 481.264 692.362H481.264Z" fill="white"/>
<path d="M462.038 732.456C459.247 731.817 456.774 730.208 455.06 727.914C453.346 725.62 452.503 722.792 452.681 719.934C452.69 719.818 452.743 719.709 452.83 719.631C452.917 719.553 453.031 719.512 453.147 719.516C453.264 719.521 453.374 719.57 453.455 719.654C453.536 719.738 453.582 719.85 453.582 719.967C453.41 722.628 454.196 725.262 455.796 727.395C457.396 729.528 459.707 731.018 462.309 731.597C462.875 731.723 462.601 732.581 462.039 732.456H462.038Z" fill="white"/>
<path d="M466.166 756.826C471.151 753.758 474.797 748.925 476.376 743.288C476.532 742.73 477.391 743.001 477.235 743.559C475.58 749.421 471.776 754.444 466.582 757.625C466.086 757.928 465.673 757.127 466.166 756.826Z" fill="white"/>
<path d="M470.509 707.633C471.538 708.105 472.667 708.314 473.797 708.242C474.926 708.169 476.02 707.818 476.98 707.218C477.471 706.909 477.883 707.71 477.395 708.017C476.332 708.674 475.124 709.061 473.876 709.144C472.628 709.227 471.379 709.003 470.238 708.492C470.127 708.453 470.034 708.373 469.98 708.268C469.925 708.163 469.912 708.041 469.944 707.927C469.981 707.814 470.061 707.719 470.166 707.664C470.272 707.609 470.395 707.598 470.509 707.633L470.509 707.633Z" fill="white"/>
<path d="M540.486 727.403C540.184 727.605 539.883 727.807 539.582 728.016C535.546 730.748 531.738 733.803 528.197 737.152C527.919 737.407 527.641 737.669 527.371 737.931C518.925 746.089 512.068 755.745 507.147 766.407C505.193 770.651 503.564 775.038 502.275 779.53C500.496 785.733 499.06 792.6 495.442 797.703C495.071 798.24 494.666 798.753 494.231 799.239L460.924 799.685C460.848 799.648 460.771 799.618 460.695 799.581L459.366 799.66C459.416 799.424 459.473 799.18 459.523 798.943C459.552 798.806 459.588 798.669 459.617 798.532C459.638 798.44 459.66 798.349 459.674 798.265C459.681 798.234 459.688 798.204 459.696 798.181C459.71 798.097 459.732 798.021 459.746 797.945C460.062 796.58 460.388 795.215 460.725 793.85C460.725 793.842 460.725 793.842 460.732 793.835C463.196 783.409 466.888 773.313 471.731 763.757C471.879 763.473 472.027 763.183 472.19 762.899C474.435 758.668 477.023 754.627 479.926 750.817C481.522 748.736 483.223 746.737 485.022 744.828C489.679 739.904 495.081 735.744 501.031 732.499C512.893 726.032 526.691 723.43 539.509 727.112C539.837 727.207 540.158 727.301 540.486 727.403Z" fill="#CCCCCC"/>
<path d="M540.416 727.827C523.875 731.343 508.861 739.982 497.509 752.516C495.017 755.171 492.959 758.202 491.411 761.498C490.007 764.757 489.501 768.333 489.946 771.854C490.295 775.145 491.034 778.471 490.577 781.79C490.318 783.485 489.703 785.106 488.773 786.548C487.843 787.989 486.62 789.217 485.182 790.152C481.66 792.575 477.478 793.588 473.354 794.436C468.774 795.378 464.003 796.284 460.21 799.203C459.75 799.557 459.228 798.823 459.687 798.47C466.287 793.391 475.234 794.319 482.48 790.699C485.861 789.01 488.754 786.292 489.546 782.472C490.239 779.133 489.48 775.702 489.098 772.373C488.613 768.945 488.975 765.45 490.153 762.194C491.528 758.83 493.466 755.724 495.883 753.01C501.227 746.814 507.512 741.496 514.508 737.252C522.466 732.364 531.201 728.873 540.335 726.93C540.901 726.81 540.978 727.708 540.417 727.827H540.416Z" fill="white"/>
<path d="M500.927 748.265C499.082 746.075 498.076 743.3 498.089 740.437C498.101 737.574 499.131 734.808 500.994 732.634C501.373 732.195 502.072 732.763 501.693 733.202C499.954 735.223 498.995 737.8 498.989 740.466C498.983 743.132 499.93 745.713 501.66 747.742C502.035 748.184 501.3 748.704 500.927 748.265Z" fill="white"/>
<path d="M489.549 770.208C495.377 770.76 501.198 769.096 505.852 765.546C506.313 765.194 506.835 765.928 506.375 766.28C501.524 769.964 495.463 771.684 489.4 771.096C488.823 771.04 488.975 770.152 489.549 770.208V770.208Z" fill="white"/>
<path d="M522.635 733.546C523.172 734.542 523.948 735.389 524.893 736.011C525.839 736.633 526.924 737.011 528.051 737.11C528.629 737.159 528.477 738.047 527.902 737.998C526.657 737.883 525.459 737.464 524.413 736.779C523.367 736.094 522.505 735.163 521.901 734.068C521.836 733.97 521.81 733.85 521.83 733.733C521.849 733.617 521.913 733.512 522.007 733.44C522.104 733.372 522.225 733.344 522.342 733.364C522.46 733.384 522.565 733.449 522.635 733.546V733.546Z" fill="white"/>
<path d="M557.763 755.694C563.613 755.694 568.355 750.952 568.355 745.101C568.355 739.251 563.613 734.508 557.763 734.508C551.912 734.508 547.17 739.251 547.17 745.101C547.17 750.952 551.912 755.694 557.763 755.694Z" fill="#CCCCCC"/>
<path d="M592.346 786.63C591.696 786.82 591.036 787.01 590.376 787.19C584.386 788.87 578.353 790.407 572.276 791.8C571.577 790.388 571.202 788.837 571.178 787.261C571.154 785.685 571.482 784.124 572.138 782.691C572.795 781.258 573.762 779.99 574.971 778.979C576.18 777.967 577.599 777.239 579.125 776.845C580.651 776.452 582.246 776.405 583.793 776.706C585.34 777.008 586.8 777.651 588.067 778.588C589.333 779.526 590.375 780.734 591.115 782.125C591.856 783.517 592.276 785.056 592.346 786.63V786.63Z" fill="#CCCCCC"/>
<path d="M652.866 763.89C652.056 764.27 651.246 764.65 650.436 765.02C649.556 765.44 648.666 765.84 647.786 766.24C646.796 766.69 645.816 767.13 644.826 767.57C641.106 769.23 637.346 770.83 633.576 772.37C633.526 772.29 633.476 772.2 633.426 772.11C632.106 769.635 631.821 766.737 632.634 764.052C633.447 761.367 635.292 759.115 637.764 757.788C640.236 756.461 643.133 756.169 645.82 756.976C648.506 757.782 650.764 759.621 652.096 762.09C652.403 762.668 652.66 763.27 652.866 763.89Z" fill="#CCCCCC"/>
<path d="M595.124 729.693C600.974 729.693 605.717 724.951 605.717 719.1C605.717 713.25 600.974 708.507 595.124 708.507C589.274 708.507 584.531 713.25 584.531 719.1C584.531 724.951 589.274 729.693 595.124 729.693Z" fill="#CCCCCC"/>
<path d="M497.955 138.702C435.645 155.092 366.605 165.062 296.405 167.792C286.117 168.353 275.805 168.283 265.525 167.582C242.935 165.682 223.585 158.582 202.035 154.702C191.675 152.842 180.135 151.482 169.705 149.472C172.115 146.482 174.568 143.529 177.065 140.612C199.555 142.512 222.395 148.732 245.155 151.622C283.845 156.542 327.195 151.052 356.525 137.512C370.755 130.942 381.655 122.742 395.835 116.142C397.764 115.152 399.853 114.512 402.005 114.252C406.495 113.842 410.435 115.652 413.645 117.272C437.435 129.282 471.975 139.042 504.035 133.672C506.425 135.542 501.885 137.672 497.955 138.702Z" fill="white"/>
<path d="M639.825 180.967C640.118 180.914 640.412 180.872 640.705 180.821C639.473 180.058 638.313 179.184 637.24 178.211L639.825 180.967Z" fill="white"/>
<path d="M831.745 204.662C818.355 205.732 804.895 206.529 791.365 207.052C781.077 207.608 770.765 207.538 760.485 206.842C737.895 204.932 718.545 197.842 696.995 193.962C677.245 190.412 653.245 188.702 640.705 180.822C673.115 175.212 706.695 186.632 740.115 190.882C767.148 194.206 794.551 192.853 821.125 186.882C824.825 192.702 828.365 198.629 831.745 204.662Z" fill="white"/>
<path d="M530.324 354.666C498.955 246.998 480.492 135.984 480.492 23.8392V15.7116H470.069V23.8391C470.069 135.984 451.605 246.998 420.237 354.667C418.721 359.879 417.953 365.28 417.956 370.709V370.709C417.956 372.762 418.36 374.795 419.146 376.692C419.932 378.589 421.083 380.312 422.535 381.764C423.987 383.216 425.71 384.367 427.607 385.153C429.504 385.939 431.537 386.343 433.59 386.343H454.435C454.435 389.08 454.974 391.791 456.022 394.32C457.069 396.849 458.605 399.147 460.541 401.083C462.476 403.018 464.774 404.554 467.303 405.601C469.832 406.649 472.543 407.188 475.28 407.188C478.018 407.188 480.729 406.649 483.258 405.601C485.787 404.554 488.085 403.018 490.02 401.083C491.956 399.147 493.491 396.849 494.539 394.32C495.587 391.791 496.126 389.08 496.126 386.343H512.347V431.271C510.059 431.338 507.883 432.278 506.266 433.898C504.649 435.518 503.714 437.696 503.652 439.984C503.59 442.273 504.407 444.498 505.934 446.203C507.461 447.908 509.583 448.964 511.864 449.154C514.145 449.344 516.412 448.654 518.201 447.225C519.989 445.796 521.162 443.737 521.48 441.47C521.797 439.203 521.235 436.9 519.909 435.035C518.582 433.169 516.592 431.882 514.347 431.438V386.343H516.971C521.117 386.343 525.094 384.696 528.026 381.764C530.958 378.832 532.605 374.855 532.605 370.709V370.709C532.608 365.28 531.84 359.879 530.324 354.666V354.666Z" fill="white"/>
</g>
<defs>
<clipPath id="clip0_0:1">
<rect width="883.027" height="802" fill="white"/>
</clipPath>
</defs>
</svg>
