<svg width="1131" height="740" viewBox="0 0 1131 740" fill="none" xmlns="http://www.w3.org/2000/svg">
<path opacity="0.35" d="M36.098 156.576L36.0981 156.576C68.0332 130.237 119.037 121.139 164.951 119.24C225.586 116.726 284.045 123.435 342.328 130.123C352.629 131.306 362.924 132.487 373.225 133.617C441.792 141.138 513.121 146.315 584.563 134.243L584.48 133.75L584.564 134.243C616.11 128.897 649.542 119.313 679.445 105.742C709.343 92.1727 735.745 74.603 753.197 53.267C770.018 32.7446 797.226 18.0809 827.598 9.70701C857.963 1.33484 891.436 -0.734406 920.732 3.88388C976.656 12.7056 1018.21 46.5333 1023.64 87.2259C1027.59 116.911 1014.34 146.515 996.053 176.261C988.804 188.051 980.778 199.844 972.735 211.661C970.637 214.744 968.538 217.828 966.451 220.915C956.369 235.826 946.579 250.78 938.638 265.786C923.841 293.74 915.601 325.641 934.389 349.192L934.78 348.88L934.389 349.192C942.91 359.865 955.51 367.324 970.244 373.096C984.978 378.868 1001.9 382.97 1019.08 386.9C1021.2 387.382 1023.31 387.862 1025.42 388.342C1040.55 391.775 1055.71 395.215 1069.67 399.677C1085.57 404.764 1099.87 411.164 1110.71 420.351C1123.6 431.29 1129.87 445.897 1129.58 461.112C1129.29 476.332 1122.44 492.195 1109.02 505.616L1109.37 505.97L1109.02 505.617C1087.86 526.835 1054.46 540.495 1021.56 551.496C962.35 571.246 900.616 585.011 839.121 598.722L838.777 598.799C672.698 635.804 506.281 672.885 338.13 696.675C262.091 707.395 183.572 715.292 113.119 702.568C78.4067 696.301 45.2586 684.226 28.16 662.907L27.77 663.22L28.1599 662.907C10.9387 641.455 12.1766 613.218 21.8596 586.742C28.7222 567.977 39.4439 549.753 50.1931 531.482C54.6264 523.947 59.0643 516.403 63.2381 508.811L62.8 508.57L63.2382 508.811C78.4529 481.13 89.6062 450.975 91.1418 422.541C92.6783 394.089 84.5826 367.347 61.2931 346.577C55.7196 341.598 49.3835 337.083 43.0811 332.592C41.8292 331.7 40.5786 330.809 39.3356 329.915C31.82 324.512 24.5733 319.012 18.8736 312.618C2.48896 294.2 0.460008 270.255 0.539985 246.952L0.539986 246.951C0.599905 216.003 5.40576 181.869 36.098 156.576Z" fill="#5C8018" stroke="#5C8018"/>
<path d="M643.43 360.24H360V425.87H643.43V360.24Z" fill="#565661"/>
<path opacity="0.1" d="M643.43 360.24H360V425.87H643.43V360.24Z" fill="black"/>
<path d="M393.91 428.03L395.9 603.24L368.64 672.06L366.53 428.03H393.91Z" fill="#BCBEC9"/>
<path d="M362.99 372.84L638.94 374.5V423.38H362.99V372.84Z" fill="#565661"/>
<path d="M615.33 428.03L638.94 431.36V669.4L615.33 596.59V428.03Z" fill="#BCBEC9"/>
<path d="M780.9 362.87H647.91V645.47H780.9V362.87Z" fill="#EFEFF0"/>
<path d="M770.26 370.72H658.55V587.95H770.26V370.72Z" fill="#565661"/>
<path opacity="0.1" d="M770.26 370.72H658.55V587.95H770.26V370.72Z" fill="black"/>
<path d="M770.26 375.17H658.55V423.38H770.26V375.17Z" fill="#565661"/>
<path d="M770.26 428.03H658.55V530.43H770.26V428.03Z" fill="#565661"/>
<path d="M770.26 536.75H658.55V639.15H770.26V536.75Z" fill="#565661"/>
<path opacity="0.1" d="M770.26 536.75H658.55V639.15H770.26V536.75Z" fill="black"/>
<path d="M663.21 663.87C667.186 663.87 670.41 659.751 670.41 654.67C670.41 649.589 667.186 645.47 663.21 645.47C659.234 645.47 656.01 649.589 656.01 654.67C656.01 659.751 659.234 663.87 663.21 663.87Z" fill="#565661"/>
<path d="M763.06 664.31C767.036 664.31 770.26 660.191 770.26 655.11C770.26 650.029 767.036 645.91 763.06 645.91C759.084 645.91 755.86 650.029 755.86 655.11C755.86 660.191 759.084 664.31 763.06 664.31Z" fill="#565661"/>
<path d="M359 672.06H368.64L365.99 365.32H351.35L359 672.06Z" fill="#EFEFF0"/>
<path d="M638.94 362.87V669.4H647.91V365.32L638.94 362.87Z" fill="#EFEFF0"/>
<path d="M366.46 420.38V431.36H638.94V423.38L366.46 420.38Z" fill="#EFEFF0"/>
<path d="M384.93 342.26H730.37L780.57 358.88V368.52L349.69 365.2V355.39L384.93 342.26Z" fill="white"/>
<path d="M349.69 355.39L780.57 358.88V368.52L349.69 365.2V355.39Z" fill="#BCBEC9"/>
<path d="M388.72 469.71L386.72 469.41C386.72 469.32 386.72 469.24 386.72 469.16C386.66 468.69 386.59 468.23 386.52 467.76C387.34 468.41 388.12 469.06 388.84 469.71H388.72Z" fill="url(#paint0_linear_0:1)"/>
<path d="M345.26 624.12C346.56 623.82 347.88 623.57 349.2 623.39C358.266 622.099 367.511 623.46 375.82 627.31C374.98 633.49 374.15 639.88 375.93 645.85C377.17 650.05 379.66 653.85 380.19 658.23C381.525 658.46 382.771 659.056 383.786 659.954C384.802 660.851 385.548 662.013 385.94 663.31C386.324 664.457 386.516 665.66 386.51 666.87C386.499 668.367 386.311 669.857 385.95 671.31C385.828 672.471 385.259 673.538 384.362 674.285C383.466 675.032 382.313 675.4 381.15 675.31C373.41 676.19 365.82 673.14 358.62 670.15L344.62 664.33C342.98 663.65 341.33 662.96 339.76 662.12C336.782 660.511 334.138 658.349 331.97 655.75C331.512 655.286 331.19 654.705 331.04 654.07C330.78 652.31 332.84 651.26 334.15 650.07C334.534 649.707 334.87 649.297 335.15 648.85C336.7 646.51 336.85 643.28 337.78 640.52C339.98 633.97 346.78 629.75 349.18 623.36C349.31 623.01 349.43 622.66 349.53 622.3" fill="#A26565"/>
<path opacity="0.1" d="M386.51 666.87C386.499 668.367 386.311 669.857 385.95 671.31C385.828 672.471 385.259 673.538 384.362 674.285C383.466 675.032 382.313 675.4 381.15 675.31C373.41 676.19 365.82 673.14 358.62 670.15L344.62 664.33C342.98 663.65 341.33 662.96 339.76 662.12C336.782 660.511 334.138 658.349 331.97 655.75C331.512 655.286 331.19 654.705 331.04 654.07C330.78 652.31 332.84 651.26 334.15 650.07C334.534 649.707 334.87 649.297 335.15 648.85C339.01 649.68 343.8 652.11 346.75 653.05C349.705 653.855 352.542 655.041 355.19 656.58C358.87 658.94 361.52 662.58 364.64 665.58C367.76 668.58 371.79 671.31 376.14 670.94C378.44 670.593 380.657 669.827 382.68 668.68L386.51 666.87Z" fill="black"/>
<path d="M370.12 524.76C370.38 525.667 370.357 526.632 370.053 527.526C369.749 528.42 369.179 529.199 368.42 529.76C367.11 530.57 365.42 530.46 364.12 531.34C362.51 532.47 362.28 534.71 362 536.65C361 543.32 357.69 549.37 354.86 555.5C352.03 561.63 349.64 568.32 350.68 574.98C351.39 579.5 353.61 584.32 351.53 588.39C351.02 589.39 350.26 590.28 349.68 591.25C346.83 596.01 348.45 602.04 348.34 607.58C348.382 608.195 348.246 608.809 347.95 609.35C347.513 609.861 346.975 610.276 346.37 610.57C345.355 611.316 344.521 612.282 343.93 613.395C343.34 614.509 343.008 615.741 342.96 617C342.876 619.518 343.179 622.034 343.86 624.46C343.97 625.439 344.403 626.354 345.09 627.06C345.886 627.586 346.826 627.852 347.78 627.82C354.063 628.329 360.225 629.828 366.04 632.26C369.83 633.84 373.51 635.82 377.54 636.58C377.93 636.701 378.34 636.741 378.746 636.698C379.152 636.655 379.544 636.53 379.9 636.33C380.407 635.873 380.757 635.267 380.9 634.6C382.45 629.5 384.02 624.24 383.49 618.94C383.26 616.66 382.65 614.43 382.49 612.15C381.79 603.15 387.88 595.03 389.81 586.15C390.68 582.15 390.68 578.01 391.3 573.97C392.98 562.9 399.08 552.97 401.43 542.02C401.757 539.979 402.266 537.971 402.95 536.02C404.7 531.78 408.75 528.34 408.84 523.75C408.896 522.74 408.63 521.739 408.08 520.89C407.137 519.855 405.885 519.154 404.51 518.89C399.077 517.395 393.547 516.279 387.96 515.55C385.399 515.047 382.786 514.866 380.18 515.01C376.796 515.408 373.544 516.556 370.66 518.37C366.8 520.75 369.28 521.32 370.12 524.76Z" fill="#313339"/>
<path d="M350.55 675.47H342.02L336.44 560.83L336.05 554.31L343.3 551.76L343.79 558.69L350.55 675.47Z" fill="#565661"/>
<path opacity="0.1" d="M343.79 558.69L336.44 560.83L336.05 554.31L343.3 551.76L343.79 558.69Z" fill="black"/>
<path d="M457.58 699.72L443.51 701.42L378.69 554.31L361.21 553.03L330.51 561.99L324.54 737.14H310.47L316.01 555.59L282.32 556.45L222.2 706.11H209.41L272.64 531.2L275.08 524.46L369.31 521.23L392.8 534.4L393.1 535.16L457.58 699.72Z" fill="#565661"/>
<path opacity="0.1" d="M393.1 535.16C372.85 541.26 351.83 547.92 351.83 547.92C351.83 547.92 332.66 554.61 324.54 547.92C323.516 547.121 322.372 546.49 321.15 546.05C322.204 546.803 323.341 547.43 324.54 547.92L272.64 531.19L275.07 524.46L369.31 521.23L392.8 534.4L393.1 535.16Z" fill="black"/>
<path d="M297.25 506.13L335.62 497.6C335.62 497.6 427.3 514.66 434.12 521.48C434.12 521.48 360.78 536.4 352.68 541.48C344.58 546.56 296.39 552.18 297.25 506.13Z" fill="white"/>
<path d="M280.75 410.24C277.75 419.75 269.56 428.32 259.59 428.73C258.865 428.815 258.13 428.683 257.48 428.35C256.23 427.57 256.2 425.74 256.71 424.35C257.22 422.96 258.11 421.71 258.25 420.25C258.28 419.952 258.26 419.651 258.19 419.36C257.93 418.17 256.96 417.11 255.82 417.36C256.596 416.739 257.113 415.851 257.27 414.869C257.428 413.887 257.214 412.882 256.67 412.05C256.217 411.539 255.809 410.99 255.45 410.41C254.62 408.71 255.91 406.8 256.45 404.98C257.56 400.98 254.74 396.98 254.51 392.81C254.31 389.08 256.2 385.57 256.67 381.87C257.42 375.87 254.44 370.12 254.09 364.13C253.85 359.95 254.88 355.81 256.03 351.78C257.03 348.18 258.16 344.54 258.23 340.78C258.23 338.05 257.76 335.35 257.63 332.63C257.423 330.143 257.874 327.646 258.94 325.39C259.632 324.063 260.811 323.056 262.23 322.58C265.51 321.48 267.66 323.19 268.14 326.3C268.94 331.59 268.48 336.99 269.53 342.3C270.501 347.266 271.972 352.12 273.92 356.79C275.69 361.01 277.84 365.09 279.2 369.46C280.224 373.062 280.956 376.741 281.39 380.46C282.73 390.45 283.78 400.73 280.75 410.24Z" fill="#5C8018"/>
<path d="M508.51 652.28C507.245 654.063 505.617 655.559 503.734 656.669C501.85 657.778 499.753 658.478 497.58 658.72C493.24 659.26 488.73 658.17 484.52 659.36C483.868 659.467 483.253 659.734 482.729 660.138C482.206 660.541 481.79 661.067 481.52 661.67C481.416 662.483 481.352 663.301 481.33 664.12C480.84 666.79 477.33 667.39 474.6 667.37L463.34 667.3C461 667.3 458.41 667.17 456.73 665.55C455.931 664.665 455.481 663.521 455.462 662.329C455.444 661.137 455.859 659.979 456.63 659.07C456.979 658.656 457.408 658.316 457.89 658.07C457.187 657.837 456.562 657.414 456.085 656.847C455.609 656.281 455.299 655.593 455.19 654.86C454.985 653.39 455.056 651.894 455.4 650.45C455.4 646.27 456.4 639.27 459.34 636C462.95 631.93 469.21 626.67 474.66 625.58C476.5 625.227 478.398 625.31 480.2 625.822C482.003 626.335 483.66 627.262 485.04 628.53C487.62 630.93 489.5 634.69 493.04 635.11C494.97 635.35 496.83 634.44 498.74 634.11C500.911 633.831 503.115 634.229 505.05 635.252C506.985 636.274 508.557 637.87 509.55 639.82C510.035 640.809 510.372 641.863 510.55 642.95C511.078 646.206 510.349 649.541 508.51 652.28Z" fill="#A26565"/>
<path opacity="0.1" d="M508.51 652.28C507.245 654.063 505.617 655.559 503.734 656.669C501.85 657.778 499.753 658.478 497.58 658.72C493.24 659.26 488.73 658.17 484.52 659.36C483.868 659.467 483.253 659.734 482.729 660.138C482.206 660.541 481.79 661.067 481.52 661.67C481.416 662.483 481.352 663.301 481.33 664.12C480.84 666.79 477.33 667.39 474.6 667.37L463.34 667.3C461 667.3 458.41 667.17 456.73 665.55C455.931 664.665 455.481 663.521 455.462 662.329C455.444 661.137 455.859 659.979 456.63 659.07C463.13 658.8 469.52 659.07 476 657.73C478.63 657.2 481.22 656.5 483.88 656.13C489.64 655.31 495.77 656.01 501.06 653.57C505.47 651.57 508.63 647.5 510.5 642.96C511.04 646.207 510.329 649.537 508.51 652.28V652.28Z" fill="black"/>
<path d="M478.8 636.47C474.8 639.57 470.11 641.99 465.07 642.25C460.03 642.51 454.68 640.25 452.21 635.87C448.6 629.44 451.8 620.5 447.38 614.6C446 612.75 444.01 611.44 442.55 609.65C441.09 607.86 440.25 605.17 441.55 603.27C439.98 603.87 438.32 602.35 437.86 600.73C437.4 599.11 437.69 597.37 437.41 595.73C436.68 591.38 432.41 588.59 430.36 584.73C428.31 580.87 428.59 575.86 428.36 571.29C427.849 560.156 423.704 549.495 416.56 540.94C415.2 539.32 413.46 537.67 411.34 537.75C411.71 534.09 409.27 530.59 406.11 528.75C402.95 526.91 399.19 526.29 395.53 525.93C358.6 522.29 320.12 536.02 284.86 524.47C275.05 521.26 265.59 515.89 259.59 507.47C257.253 504.266 255.581 500.626 254.672 496.765C253.764 492.904 253.637 488.9 254.3 484.99V484.85C255.69 477.75 259.44 476 265.65 472.76C272.819 468.97 280.312 465.827 288.04 463.37C303.04 458.68 319.19 456.99 334.67 460.43C341.9 462.05 348.87 464.73 356.11 466.3C358.96 466.92 361.83 467.36 364.72 467.73C369.21 468.29 373.72 468.66 378.24 469.18C392.693 470.844 406.927 474.046 420.7 478.73C425.83 480.47 430.96 482.46 435.37 485.61C438.858 488.143 441.808 491.345 444.046 495.03C446.285 498.714 447.768 502.807 448.41 507.07C448.83 510.01 448.84 513.07 449.48 515.92C450.086 518.315 450.889 520.656 451.88 522.92C460.425 544.046 467.407 565.771 472.77 587.92C473.074 589.565 473.638 591.152 474.44 592.62C475.72 594.69 477.92 596.08 479.21 598.15C482.21 603.03 479.32 609.84 481.98 614.92C482.9 616.68 484.43 618.07 485.35 619.83C488.35 625.6 483.92 632.5 478.8 636.47Z" fill="#313339"/>
<path opacity="0.1" d="M427.7 521.57C429.122 520.445 430.348 519.094 431.33 517.57C432.315 516.039 432.707 514.2 432.43 512.4C432.82 514.677 432.671 517.013 431.996 519.222C431.32 521.431 430.137 523.451 428.54 525.12C426.03 527.69 421.32 530.21 417.65 529.33C418.17 526.39 425.37 523.55 427.7 521.57Z" fill="black"/>
<path opacity="0.1" d="M365.22 471.73C364.918 472.802 364.354 473.782 363.579 474.581C362.804 475.381 361.842 475.975 360.78 476.31C358.648 476.962 356.415 477.223 354.19 477.08H352.19C325.95 476.5 299.43 470.68 273.8 476.23C270.711 476.867 267.681 477.76 264.74 478.9C260.994 480.377 257.486 482.398 254.33 484.9V484.76C255.72 477.66 259.47 475.91 265.68 472.67C272.843 468.912 280.325 465.8 288.04 463.37C303.04 458.68 319.19 456.99 334.67 460.43C341.9 462.05 348.87 464.73 356.11 466.3C358.96 466.92 361.83 467.36 364.72 467.73C365.281 468.984 365.455 470.377 365.22 471.73V471.73Z" fill="black"/>
<path d="M365.22 470.3C364.92 471.374 364.357 472.356 363.582 473.158C362.807 473.96 361.844 474.555 360.78 474.89C358.648 475.543 356.415 475.801 354.19 475.65H352.19C325.95 475.07 299.43 469.25 273.8 474.8C270.712 475.438 267.682 476.328 264.74 477.46C260.817 479.025 257.157 481.183 253.89 483.86C253.123 481.753 252.36 479.643 251.6 477.53C250.68 475.01 253.6 474.45 254.16 472.19C254.53 470.66 253.9 468.92 253.58 467.29C253.498 466.891 253.444 466.487 253.42 466.08C253.24 462.47 254.53 460.39 257.49 458.44C266.27 452.64 276.98 448.66 287 445.67C292.327 443.986 297.83 442.919 303.4 442.49C311.28 442.03 319.15 443.49 326.82 445.34C336.25 447.67 345.58 450.75 353.94 455.68C358.04 458.07 362.04 461.07 364.25 465.33C365.132 466.827 365.474 468.581 365.22 470.3Z" fill="#B28B67"/>
<path opacity="0.1" d="M280.75 410.24C277.75 419.75 269.56 428.32 259.59 428.73C258.865 428.815 258.13 428.683 257.48 428.35C256.23 427.57 256.2 425.74 256.71 424.35C257.22 422.96 258.11 421.71 258.25 420.25C258.28 419.952 258.26 419.651 258.19 419.36C263.48 411.9 268.61 404.36 270.64 395.53C271.051 394.01 271.176 392.426 271.01 390.86C270.74 389.06 269.83 387.43 269.33 385.69C268.45 382.61 268.86 379.35 269.11 376.16C270.151 362.113 267.806 348.022 262.27 335.07C260.92 331.95 259.38 328.79 258.91 325.46C259.602 324.133 260.781 323.126 262.2 322.65C265.48 321.55 267.63 323.26 268.11 326.37C268.91 331.66 268.45 337.06 269.5 342.37C270.471 347.336 271.942 352.19 273.89 356.86C275.66 361.08 277.81 365.16 279.17 369.53C280.194 373.132 280.926 376.811 281.36 380.53C282.73 390.45 283.78 400.73 280.75 410.24Z" fill="black"/>
<path opacity="0.1" d="M365.22 470.3C364.92 471.374 364.357 472.356 363.582 473.158C362.807 473.96 361.844 474.555 360.78 474.89C358.648 475.543 356.415 475.801 354.19 475.65H352.19C343.648 469.977 333.379 467.498 323.19 468.65C319.93 469.04 316.67 469.8 313.41 469.5C306.82 468.9 301.48 464.16 295.61 461.13C288.93 457.832 281.418 456.605 274.036 457.606C266.654 458.607 259.74 461.792 254.18 466.75L253.61 467.25C253.528 466.851 253.474 466.447 253.45 466.04C253.27 462.43 254.56 460.35 257.52 458.4C266.3 452.6 277.01 448.62 287.03 445.63C292.357 443.946 297.86 442.879 303.43 442.45C311.31 441.99 319.18 443.45 326.85 445.3C336.28 447.63 345.61 450.71 353.97 455.64C358.04 458.07 362.04 461.07 364.25 465.33C365.132 466.827 365.474 468.581 365.22 470.3Z" fill="black"/>
<path d="M387.65 360.76L387.51 361.12C385.27 366.93 381.15 371.84 378.51 377.5C375.18 384.67 374.36 392.71 373.62 400.59C372.98 407.34 372.35 414.13 372.86 420.9C374.14 437.58 382.29 453.4 384.47 469.76C385.007 473.538 385.145 477.363 384.88 481.17C384.7 483.58 384.26 486.17 382.66 487.95C381.06 489.73 377.95 490.43 376.23 488.72C377 487.25 377.78 485.79 378.56 484.32C373.99 480.77 367.11 483.32 361.77 481.1C359.42 480.1 357.54 478.3 355.57 476.69C351.074 473.034 345.892 470.314 340.33 468.69C334.768 467.065 328.937 466.569 323.18 467.23C319.92 467.63 316.66 468.39 313.4 468.09C306.81 467.48 301.47 462.75 295.6 459.72C288.921 456.423 281.409 455.196 274.028 456.195C266.647 457.195 259.732 460.376 254.17 465.33C252.77 466.63 250.89 468.15 249.17 467.33C248.505 466.923 247.968 466.337 247.62 465.64C241.07 454.45 245.89 440.02 252.89 429.12C259.89 418.22 269.16 408.17 272.04 395.54C272.456 394.02 272.581 392.436 272.41 390.87C272.14 389.07 271.23 387.44 270.73 385.7C269.85 382.62 270.26 379.36 270.51 376.17C271.559 362.122 269.22 348.027 263.69 335.07C262.09 331.34 260.19 327.56 260.19 323.51C260.19 317.13 264.76 311.84 268.54 306.71C272.89 300.81 276.54 294.28 282.05 289.43C287.27 284.82 294.83 282 301.29 284.34C312.267 281.675 323.565 280.574 334.85 281.07C338.75 281.25 342.78 281.66 346.2 283.55C349.86 285.55 352.49 289.11 356.09 291.24C358.72 292.81 361.75 293.55 364.61 294.65C372.507 297.734 379.026 303.565 382.97 311.07C386.97 318.82 387.97 327.73 388.85 336.41C389.69 344.58 390.49 353.07 387.65 360.76Z" fill="#5C8018"/>
<path opacity="0.1" d="M372.86 420.9C374.14 437.58 382.29 453.4 384.47 469.76C380.11 466.07 374.04 462.36 373.23 458.07C372.33 453.43 369.45 447.35 368.97 442.66C368.49 437.97 371.78 432.24 368.33 429.02C366.65 427.45 371.12 427.89 369.48 426.28C365.79 422.69 364.88 417.16 364.65 412.03C364.26 402.95 365.41 393.77 363.74 384.84C362.74 379.33 360.65 374.08 358.98 368.73C357.04 362.5 355.64 356.12 354.24 349.73C352.862 344.049 351.86 338.283 351.24 332.47C350.81 327.47 351.01 322.17 353.24 317.61C355.47 313.05 359.98 309.35 365.04 309.42C381.96 309.64 379.04 332.58 382.76 343.18C384.25 347.4 386.26 351.48 387.07 355.88C387.365 357.605 387.526 359.35 387.55 361.1C385.31 366.91 381.19 371.82 378.55 377.48C375.22 384.65 374.4 392.69 373.66 400.57C372.98 407.34 372.35 414.13 372.86 420.9Z" fill="black"/>
<path d="M383.86 342.92C385.35 347.14 387.36 351.22 388.17 355.62C389.52 362.99 387.43 370.82 389.7 377.96C390.291 379.484 390.785 381.044 391.18 382.63C391.57 384.9 391.12 387.22 391.12 389.53C391.12 393.25 392.29 396.85 393.33 400.42C396.847 412.552 399.175 424.997 400.28 437.58C400.445 440.961 400.978 444.314 401.87 447.58C402.29 448.687 402.65 449.815 402.95 450.96C403.219 452.488 403.282 454.045 403.14 455.59C402.87 460.49 402.32 465.41 402.87 470.29C403.42 475.17 405.2 480.12 408.87 483.39C405.59 484.1 402.12 484.81 398.92 483.76C394.42 482.29 391.72 477.76 389.43 473.64C386.53 468.38 375.51 463.64 374.37 457.73C373.48 453.1 370.6 447.02 370.12 442.32C369.64 437.62 372.92 431.91 369.47 428.69C367.8 427.12 372.27 427.55 370.62 425.95C366.94 422.36 366.03 416.83 365.8 411.69C365.41 402.62 366.55 393.44 364.89 384.51C363.89 379 361.8 373.75 360.13 368.39C358.19 362.17 356.79 355.79 355.39 349.39C354.008 343.71 353.006 337.944 352.39 332.13C351.96 327.13 352.15 321.82 354.39 317.26C356.63 312.7 361.14 309.01 366.19 309.07C383.04 309.37 380.14 332.32 383.86 342.92Z" fill="#5C8018"/>
<path opacity="0.1" d="M335.64 346.83C337.22 348.68 339.25 350.71 341.64 350.35C341.459 350.638 341.172 350.843 340.841 350.921C340.51 351 340.161 350.945 339.87 350.77C339.296 350.39 338.837 349.861 338.54 349.24L335.12 343.47C334.67 342.72 331.57 338.35 330.81 340.87C330.51 341.94 334.87 345.93 335.64 346.83Z" fill="black"/>
<path opacity="0.1" d="M333.8 361.22C333.702 359.335 332.907 357.553 331.57 356.22C330.368 355.13 328.965 354.284 327.44 353.73C323.69 352.19 319.25 350.95 315.18 351.15C316.66 353.31 321.41 354.6 323.79 355.82C327.163 357.56 330.5 359.36 333.8 361.22Z" fill="black"/>
<path opacity="0.1" d="M344.45 402.18C343.76 407.3 339.57 411.18 335.33 414.18C331.09 417.18 326.33 419.76 323.56 424.1C321.64 427.1 320.78 430.58 319.15 433.71C317.35 437.16 314.66 440.06 312.51 443.3C310.36 446.54 308.68 450.41 309.34 454.25C309.349 454.427 309.395 454.6 309.474 454.758C309.553 454.916 309.664 455.056 309.8 455.17C310.006 455.257 310.231 455.29 310.453 455.265C310.676 455.241 310.888 455.16 311.07 455.03C315.43 452.75 317.15 447.54 318.98 443.03C320.901 438.478 323.064 434.031 325.46 429.71C326.54 427.71 327.73 425.53 329.74 424.42C331.116 423.847 332.525 423.356 333.96 422.95C335.995 422.017 337.78 420.615 339.17 418.86C344.629 412.348 347.479 404.042 347.17 395.55C347.11 393.76 347.01 385.14 344.32 387.8C341.63 390.46 344.91 398.7 344.45 402.18Z" fill="black"/>
<path d="M351.04 205.81C359.64 209.56 367.04 217.81 366.77 227.16C366.54 236.98 358.32 246.23 361.15 255.64C362.79 261.1 367.73 264.76 371.64 268.91C386.53 284.67 386.5 312.18 371.56 327.91C365.84 333.91 358.49 338.18 352.44 343.91C331.11 364.01 330.2 398.78 341.62 425.77C332.87 427.662 323.952 428.668 315 428.77C310.81 428.77 305.68 428.06 304.16 424.15C302.76 420.54 305.16 415.66 302.4 412.99C301.1 411.74 299.15 411.57 297.4 411.28C286.14 409.46 276.9 400.47 272.68 389.88C268.46 379.29 268.68 367.37 271.1 356.23C272.82 348.18 275.51 339.32 271.52 332.12C266.52 323.06 252.14 319.24 252.36 308.88C252.54 300.39 262.55 296.26 268.23 289.95C278.71 278.33 273.72 260.3 273.7 244.64C273.7 230.86 278.52 216.64 288.78 207.46C304.04 193.69 333.43 198.16 351.04 205.81Z" fill="black"/>
<g opacity="0.1">
<path opacity="0.1" d="M273.16 321.85C268.77 313.93 257.24 310.01 254.56 302.22C253.219 304.038 252.466 306.222 252.4 308.48C252.18 318.84 266.54 322.66 271.56 331.73C273.208 334.941 273.902 338.557 273.56 342.15C275.14 335.19 276.53 327.93 273.16 321.85Z" fill="black"/>
<path opacity="0.1" d="M362.3 242.82C364.1 237.57 366.71 232.27 366.84 226.82C366.858 226.23 366.841 225.639 366.79 225.05C364.78 231.07 361.7 236.91 362.3 242.82Z" fill="black"/>
<path opacity="0.1" d="M274.88 270.79C278.32 259.92 275.35 246.44 275.34 234.38C275.34 232.92 275.4 231.45 275.51 229.99C274.325 234.651 273.727 239.441 273.73 244.25C273.75 252.86 275.26 262.2 274.88 270.79Z" fill="black"/>
<path opacity="0.1" d="M373.23 317.68C367.51 323.68 360.16 327.95 354.11 333.68C343.31 343.85 337.76 357.78 336.37 372.55C338.95 361.55 344.16 351.42 352.51 343.55C358.51 337.85 365.91 333.6 371.63 327.55C378.434 320.135 382.385 310.546 382.78 300.49C381.053 306.916 377.774 312.819 373.23 317.68V317.68Z" fill="black"/>
<path opacity="0.1" d="M316.67 418.51C312.48 418.51 307.35 417.79 305.83 413.88C304.43 410.28 306.83 405.4 304.07 402.72C302.77 401.47 300.81 401.3 299.07 401.01C287.82 399.2 278.58 390.2 274.36 379.62C271.25 371.8 270.58 363.27 271.36 354.85C271.28 355.18 271.21 355.51 271.14 355.85C268.76 366.99 268.51 378.92 272.72 389.51C276.93 400.1 286.18 409.09 297.43 410.9C299.21 411.19 301.17 411.37 302.43 412.61C305.22 415.29 302.79 420.17 304.19 423.77C305.71 427.68 310.84 428.45 315.03 428.4C323.982 428.297 332.9 427.292 341.65 425.4C340.416 422.483 339.338 419.502 338.42 416.47C331.238 417.746 323.964 418.429 316.67 418.51V418.51Z" fill="black"/>
</g>
<path opacity="0.1" d="M349.42 374.9C351.89 376.76 354.57 369.67 353.04 367.9C352.63 368.36 349.04 374.64 349.42 374.9Z" fill="black"/>
<path opacity="0.1" d="M359.95 503.24C362.86 502.24 365.95 501.24 367.85 498.84C369.42 496.91 370.71 489.25 367.39 492.92C364.57 496.07 363.24 500.22 359.95 503.24Z" fill="black"/>
<path opacity="0.1" d="M389.58 495.21C389.23 497.57 388.58 500.02 386.91 501.72C386.6 502.04 385.91 502.24 385.82 501.81C387.685 500.817 389.419 499.594 390.98 498.17C394.36 494.82 394.82 486.57 389.67 484.38C389.62 488 390.13 491.53 389.58 495.21Z" fill="black"/>
<path d="M425.15 480.34C425.15 480.34 396.77 469.19 386.51 470.34C376.25 471.49 398.13 487.66 398.13 487.66L411.21 496.48C411.21 496.48 419.21 493.48 419.74 493.25C420.27 493.02 425.15 480.34 425.15 480.34Z" fill="#313339"/>
<path d="M229.88 360.72C229.88 360.72 251.2 348.36 279.34 363.72C307.48 379.08 312.17 469.47 312.17 469.47C312.17 469.47 300.66 561.56 345.04 541.07C345.04 541.07 426.04 515.92 434.15 521.46C434.15 521.46 441.83 521.46 426.48 524.87C411.13 528.28 351.83 547.07 351.83 547.07C351.83 547.07 332.66 553.77 324.54 547.07C316.42 540.37 293.41 547.93 290.42 501.87C288.441 472.844 284.883 443.948 279.76 415.31L271.85 391.86L229.88 360.72Z" fill="#565661"/>
<path d="M227.32 503.14C227.32 503.14 236.7 409.76 221.32 376.07C207.94 346.71 259.68 360.44 273.18 364.44C275.269 365.065 277.092 366.366 278.36 368.14C286.36 379.39 315.06 424.48 306.6 484.81C306.6 484.81 303.19 538.54 324.51 547.06L258.82 525.9C253.49 524.18 248.08 522.75 242.62 521.51C235.66 519.93 224.32 515.44 227.32 503.14Z" fill="white"/>
<path d="M694.53 677.47H703.06L708.65 562.83L709.03 556.31L701.78 553.76L701.3 560.69L694.53 677.47Z" fill="#565661"/>
<path opacity="0.1" d="M701.3 560.69L708.65 562.83L709.03 556.31L701.78 553.76L701.3 560.69Z" fill="black"/>
<path d="M623.31 633.2C623.1 634.77 622.697 636.309 622.11 637.78C621.504 639.702 620.202 641.328 618.46 642.34C617.29 642.823 616.036 643.071 614.77 643.07C610.06 643.35 605.08 643.28 601.03 640.88C599.305 639.768 597.723 638.448 596.32 636.95C587.219 627.908 578.946 618.068 571.6 607.55C570.37 605.78 569.1 603.69 569.65 601.55C579.166 598.91 588.202 594.776 596.42 589.3C597.554 588.43 598.825 587.754 600.18 587.3C602.5 586.804 604.889 586.716 607.24 587.04C609.51 587.41 609.61 587.48 610.48 590.04C611.92 594.37 611.68 599.04 613.3 603.37C614.328 605.763 615.58 608.053 617.04 610.21C621.22 617.2 624.43 625.45 623.31 633.2Z" fill="#A26565"/>
<path opacity="0.1" d="M623.31 633.2C623.1 634.77 622.697 636.309 622.11 637.78C621.504 639.702 620.202 641.328 618.46 642.34C617.29 642.823 616.036 643.071 614.77 643.07C610.06 643.35 605.08 643.28 601.03 640.88C599.305 639.768 597.723 638.448 596.32 636.95C587.219 627.908 578.946 618.068 571.6 607.55C570.37 605.78 569.1 603.69 569.65 601.55C572.754 600.69 575.812 599.668 578.81 598.49L578.96 598.6C582.03 600.79 584.26 603.93 586.43 607.01L593.43 616.86C594.678 618.795 596.151 620.574 597.82 622.16C599.889 623.82 602.173 625.193 604.61 626.24C607.9 627.83 611.19 629.42 614.61 630.7C616.82 631.59 620.56 631.94 623.31 633.2Z" fill="black"/>
<path d="M629.77 526.41C629.081 528.072 628.244 529.668 627.27 531.18C617.975 546.787 610.805 563.566 605.95 581.07C604.57 580.76 603.79 582.64 603.8 584.07C603.81 585.5 603.8 587.3 602.48 587.82C602.09 587.97 601.65 587.97 601.27 588.14C600.43 588.52 600.19 589.59 600.07 590.51L598.89 599.17C598.48 602.17 598.12 605.42 599.59 608.07C600.604 609.645 601.919 611.004 603.46 612.07L622.98 627.47C623.78 628.1 624.77 628.77 625.73 628.42C627.92 627.62 625.98 623.7 627.73 622.11C628.89 621.02 630.73 621.84 632.34 621.71C634.44 621.55 636.03 619.62 636.56 617.59C636.932 615.523 636.969 613.409 636.67 611.33C636.538 610.381 636.648 609.415 636.99 608.52C637.586 607.572 638.407 606.785 639.38 606.23C642.767 603.756 645.496 600.491 647.328 596.718C649.16 592.945 650.04 588.781 649.89 584.59C649.731 583.314 649.778 582.021 650.03 580.76C650.437 579.606 651.05 578.535 651.84 577.6C658.93 568.01 664.84 557.6 670.71 547.21C674.09 541.21 677.53 535.12 678.71 528.36C678.812 528.108 678.855 527.837 678.834 527.566C678.813 527.295 678.729 527.033 678.59 526.8C678.45 526.567 678.258 526.37 678.029 526.224C677.8 526.079 677.54 525.988 677.27 525.96C674.342 525.046 671.355 524.331 668.33 523.82C659.14 521.96 650.27 519.09 641.33 516.33C632.39 513.57 632.46 519.19 629.77 526.41Z" fill="#313339"/>
<path d="M587.5 701.72L601.58 703.42L666.39 556.31L683.87 555.03L714.58 563.99L720.54 739.14H734.61L729.07 557.59L762.76 558.45L822.88 708.11H835.67L772.44 533.2L770.01 526.46L675.77 523.23L652.28 536.4L651.98 537.16L587.5 701.72Z" fill="#565661"/>
<path opacity="0.1" d="M651.98 537.16C672.23 543.26 693.25 549.92 693.25 549.92C693.25 549.92 712.42 556.61 720.54 549.92C721.564 549.121 722.708 548.49 723.93 548.05C722.876 548.803 721.739 549.43 720.54 549.92L772.44 533.19L770.04 526.46L675.8 523.23L652.31 536.4L651.98 537.16Z" fill="black"/>
<path d="M747.83 508.13L709.46 499.6C709.46 499.6 617.78 516.66 610.96 523.48C610.96 523.48 684.3 538.4 692.4 543.48C700.5 548.56 748.69 554.18 747.83 508.13Z" fill="white"/>
<path d="M605.45 645.21C603.14 649.61 597.45 650.85 592.45 650.92C585.508 651.006 578.613 649.774 572.13 647.29C568.43 645.87 564.88 644.04 561.06 643C555.37 641.44 549.06 641.57 544.06 638.44C541.408 636.672 539.217 634.296 537.67 631.51C537.38 631.02 537.1 630.51 536.84 629.99C534.45 625.34 533.34 619.93 534.67 614.91C536 609.89 540.83 604.36 546.43 604.44C553.08 604.54 561.01 607.69 567.43 609.32C575.43 611.32 583.43 613.63 590.5 617.86C596.42 621.42 601.65 626.53 604.44 632.77C604.976 633.974 605.418 635.217 605.76 636.49C606.63 639.37 606.83 642.58 605.45 645.21Z" fill="#A26565"/>
<path opacity="0.1" d="M605.45 645.21C603.14 649.61 597.45 650.85 592.45 650.92C585.508 651.006 578.613 649.774 572.13 647.29C568.43 645.87 564.88 644.04 561.06 643C555.37 641.44 549.06 641.57 544.06 638.44C541.408 636.672 539.217 634.296 537.67 631.51C537.38 631.02 537.1 630.51 536.84 629.99C537.84 630.07 538.76 630.17 539.26 630.22C545.4 630.81 551.26 633.05 557.12 634.74C565.255 637.09 573.655 638.4 582.12 638.64C588.12 638.81 594.38 638.37 599.62 635.44C601.185 634.453 602.808 633.561 604.48 632.77C605.016 633.974 605.458 635.217 605.8 636.49C606.63 639.37 606.83 642.58 605.45 645.21Z" fill="black"/>
<path d="M648.42 455.07C635.42 452.94 622.18 452.42 609 451.9L592.88 451.26C591.734 451.127 590.572 451.268 589.49 451.67C588.558 452.269 587.672 452.938 586.84 453.67C585.22 454.77 583.15 454.89 581.2 455C567.367 455.762 553.609 457.547 540.04 460.34C533.04 461.77 525.77 463.64 520.51 468.47C514.95 473.58 512.51 481.37 512.32 488.91C512.13 496.45 514.11 503.86 516.2 511.1C518.861 519.816 520.331 528.851 520.57 537.96C520.476 540.487 520.573 543.018 520.86 545.53C521.325 547.929 522.032 550.274 522.97 552.53L530.33 572.18C530.98 573.9 531.62 575.61 532.33 577.29C533.04 578.97 533.72 580.29 534.33 581.87C535.23 584.03 535.94 586.27 536.65 588.5L541.55 603.89L542.19 605.89C543.96 611.43 545.77 617.07 549.11 621.83C552.45 626.59 557.62 630.43 563.43 630.72C565.305 630.65 567.182 630.7 569.05 630.87C570.642 631.259 572.188 631.819 573.66 632.54C578.023 634.352 582.706 635.267 587.43 635.23C591.78 635.23 596.61 634.02 598.97 630.36C600.27 628.36 600.61 625.9 600.97 623.54C601.6 618.8 602.21 613.85 600.6 609.35C599.6 606.66 597.92 604.35 596.76 601.7C595.14 598.09 594.61 594.1 593.56 590.29C591.288 582.089 586.664 574.734 580.26 569.13C577.986 560.125 576.315 550.978 575.26 541.75C575.113 539.707 574.707 537.69 574.05 535.75C572.88 532.75 570.51 530.32 569.52 527.26C568.59 524.42 568.87 521.14 567.18 518.69C581.25 522.56 595.18 521.69 609.79 521.46C614.469 521.475 619.144 521.208 623.79 520.66C625.956 520.263 628.149 520.029 630.35 519.96C634.87 519.96 639.11 521.96 643.26 523.72C654.99 528.72 667.35 532.65 680.09 533.19C693.24 533.74 706.24 530.65 719.09 527.59C724.74 526.24 730.61 524.78 735.09 521.07C739.57 517.36 742.09 510.67 739.33 505.58C737.23 501.75 732.88 499.87 728.82 498.27C717.58 493.83 706.28 489.5 695.45 484.13C678.91 476.07 666.54 458.07 648.42 455.07Z" fill="#313339"/>
<path d="M625.24 409.83C623.67 413.23 621.03 416.01 619.08 419.21C615.818 424.478 614.741 430.811 616.08 436.86C616.783 439.85 618.163 442.64 620.113 445.013C622.064 447.386 624.532 449.281 627.33 450.55C629.827 451.545 632.454 452.178 635.13 452.43C638.65 452.86 642.4 452.95 645.51 451.25C647.838 449.853 649.747 447.857 651.04 445.47C653.73 440.97 655.26 435.9 656.66 430.85C659.25 421.53 661.46 411.97 661.14 402.3C661.03 398.97 660.37 395.22 657.61 393.3C656.185 392.477 654.605 391.96 652.97 391.78L639.78 389.42C637.23 388.96 632.78 387.09 630.57 388.93C628.36 390.77 628.19 396.21 627.81 398.76C627.21 402.53 626.84 406.36 625.24 409.83Z" fill="#B28B67"/>
<path d="M785.57 371.15L782.12 400.07C781.406 405.228 780.995 410.424 780.89 415.63C780.89 418.53 780.98 421.75 779.06 423.92C778.121 424.907 776.932 425.623 775.62 425.99C771.43 427.29 766.86 426.13 762.86 424.34C760.52 423.34 758.13 421.89 757.07 419.56C756.454 417.945 756.198 416.214 756.32 414.49C756.32 397.24 757.95 379.25 766.96 364.55C767.729 363.108 768.812 361.857 770.13 360.89C772.63 359.29 775.9 359.74 778.73 360.61C780.47 361.14 785.17 361.73 786.28 363.28C787.39 364.83 785.81 369.16 785.57 371.15Z" fill="#A1616A"/>
<path d="M694.04 266.57C713.922 266.57 730.04 250.452 730.04 230.57C730.04 210.688 713.922 194.57 694.04 194.57C674.158 194.57 658.04 210.688 658.04 230.57C658.04 250.452 674.158 266.57 694.04 266.57Z" fill="#B28B67"/>
<path d="M684.41 284.22C684.28 287.021 683.518 289.756 682.18 292.22C700.56 289.42 718.893 286.3 737.18 282.86C731.113 279.741 726.526 274.349 724.42 267.86C723.426 264.381 722.881 260.788 722.8 257.17C722.51 251.433 722.62 245.682 723.13 239.96C716.73 240.63 710.67 243.03 704.57 245.09C698.437 247.163 692.198 248.908 685.88 250.32C682.83 251 679.76 251.58 676.68 252.12C673.08 252.76 671.35 252.75 673.85 255.91C680.56 264.35 685.35 272.93 684.41 284.22Z" fill="#B28B67"/>
<path d="M695.47 279.41C690.72 280.12 685.74 280.92 681.95 283.86C680.507 285.099 679.135 286.418 677.84 287.81C670.31 295.12 659.68 298.06 650.54 303.22C649.049 303.957 647.728 304.996 646.66 306.27C645.66 307.66 645.15 309.43 644.1 310.81C642.88 312.41 640.95 313.41 640 315.18C639.05 316.95 639.26 318.83 639.16 320.71C638.93 324.84 637.37 328.76 636.16 332.71C630.61 351.62 633.65 372.71 625.25 390.57C625.636 391.599 626.227 392.539 626.987 393.333C627.746 394.127 628.659 394.759 629.67 395.19C631.784 395.951 633.99 396.426 636.23 396.6L654.84 398.91C657.5 399.24 660.32 399.55 662.75 398.44C660.527 404.568 658.955 410.913 658.06 417.37C657.608 421.317 656.906 425.231 655.96 429.09C653.4 437.89 646.96 445.22 639.33 450.23C638.369 450.733 637.558 451.482 636.98 452.4C635.98 454.4 637.46 456.64 638.51 458.6C641.56 464.28 641.14 471.1 641.1 477.54C641.06 483.98 641.71 491.05 646.21 495.67C648.87 498.4 652.51 499.88 656.05 501.29L685.16 512.92C689.964 514.966 694.919 516.637 699.98 517.92C707.65 519.67 715.62 519.6 723.49 519.26C728.69 519.04 733.883 518.707 739.07 518.26C741.133 518.253 743.161 517.72 744.96 516.71C746.509 515.488 747.701 513.871 748.41 512.03C752.46 503.22 753.82 492.94 760.1 485.56C764.41 480.49 771.1 476.44 771.59 469.81C771.82 466.51 770.35 463.3 770.33 459.99C770.33 455.92 772.46 452.05 772.33 447.99C772.06 441.38 765.83 436.34 764.84 429.8C762.32 413.22 770.74 396.66 775.91 380.71C776.84 377.86 778.04 374.71 780.78 373.49C783.52 372.27 787.38 372.91 788.36 370.21C790.83 363.43 791.42 355.48 791.1 348.27C790.92 344.1 789.44 340.02 789.61 335.84C789.73 332.9 790.67 330.04 790.92 327.11C791.3 322.68 790.13 318.28 788.92 314C788.57 312.472 788.047 310.989 787.36 309.58C786.621 308.302 785.75 307.105 784.76 306.01L779.89 300.22C777.61 297.51 775.2 294.7 771.89 293.33C770.82 290.68 767.4 288.85 764.95 287.39C762.48 285.989 759.929 284.736 757.31 283.64L729.77 271.48C728.741 270.962 727.638 270.604 726.5 270.42C724.824 270.364 723.158 270.707 721.64 271.42C713.24 274.75 704.47 278.07 695.47 279.41Z" fill="#5C8018"/>
<path d="M666.3 236.83C665.24 233.1 662.53 229.88 662.12 226.02C661.75 222.59 663.26 219.27 664.12 215.93C664.98 212.59 664.95 208.51 662.3 206.29C661.86 205.91 661.3 205.57 661.14 205.01C660.82 204.01 661.83 203.1 662.14 202.09C662.71 200.09 660.24 197.88 661.14 195.96C661.65 194.91 662.93 194.54 664.05 194.21C668.33 192.94 672.67 190.12 673.6 185.75C676.95 187.15 680.52 184.52 683.09 181.97C685.66 179.42 688.82 176.51 692.36 177.28L691.57 178.89C697.028 176.908 702.998 176.841 708.5 178.7H706.82C711.646 178.782 716.326 180.365 720.21 183.23C719.78 183.23 719.74 183.87 719.91 184.23C721.31 187.5 724.91 189.23 728.38 190.04C730.47 190.54 732.74 190.9 734.27 192.4C735.8 193.9 735.83 197.03 733.81 197.75C737.929 199.354 741.83 201.471 745.42 204.05C746.42 204.78 747.55 205.77 747.42 207.05C747.277 207.693 747.069 208.319 746.8 208.92C746.6 209.987 746.672 211.088 747.01 212.12L748.12 216.7C749.34 221.79 750.3 227.92 746.59 231.61C747.979 234.205 748.494 237.178 748.06 240.089C747.626 243 746.265 245.693 744.18 247.77C744.474 248.663 744.576 249.609 744.478 250.545C744.381 251.48 744.086 252.384 743.614 253.198C743.141 254.011 742.502 254.715 741.738 255.264C740.973 255.812 740.102 256.193 739.18 256.38C740.41 258.3 739.28 261.04 737.34 262.24C735.4 263.44 732.96 263.45 730.7 263.24C728.44 263.03 726.15 262.52 723.89 262.86C720.6 263.37 717.38 265.61 714.21 264.61C713.028 264.105 711.894 263.496 710.82 262.79C708.6 261.6 706.02 261.33 703.56 260.79C699.366 259.889 695.384 258.191 691.83 255.79C689.474 254.374 687.596 252.284 686.44 249.79C684.24 244.23 687.94 236.94 684.05 232.41C681.77 229.77 677.25 229.73 674.7 231.99C673.43 233.12 673.26 235.5 671.94 236.35C670.099 236.816 668.194 236.978 666.3 236.83Z" fill="black"/>
<path opacity="0.1" d="M617.38 523.57C615.959 522.445 614.732 521.094 613.75 519.57C612.765 518.039 612.373 516.2 612.65 514.4C612.26 516.677 612.409 519.013 613.084 521.222C613.76 523.431 614.943 525.451 616.54 527.12C619.05 529.69 623.76 532.21 627.43 531.33C626.91 528.39 619.71 525.55 617.38 523.57Z" fill="black"/>
<path d="M815.2 362.72C815.2 362.72 793.88 350.36 765.74 365.72C737.6 381.08 732.91 471.47 732.91 471.47C732.91 471.47 744.42 563.56 700.04 543.07C700.04 543.07 619.04 517.92 610.93 523.46C610.93 523.46 603.25 523.46 618.6 526.87C633.95 530.28 693.25 549.07 693.25 549.07C693.25 549.07 712.42 555.77 720.54 549.07C728.66 542.37 751.67 549.93 754.66 503.87C756.639 474.844 760.197 445.948 765.32 417.31L773.23 393.86L815.2 362.72Z" fill="#565661"/>
<path d="M817.76 505.14C817.76 505.14 808.38 411.76 823.76 378.07C837.14 348.71 785.4 362.44 771.9 366.44C769.811 367.065 767.988 368.366 766.72 370.14C758.72 381.39 730.02 426.48 738.48 486.81C738.48 486.81 741.89 540.54 720.57 549.06L786.26 527.9C791.59 526.18 797 524.75 802.46 523.51C809.42 521.93 820.76 517.44 817.76 505.14Z" fill="white"/>
<path d="M993.1 371.26H986.83V512.43H993.1V371.26Z" fill="#535461"/>
<path d="M1032.12 518.36L1031.56 527.33H948.38L947.82 518.36H1032.12Z" fill="#9D9CB5"/>
<path d="M1031.33 531.08L1030.78 540.06H949.17L948.61 531.08H1031.33Z" fill="#9D9CB5"/>
<path d="M1030.54 543.8L1029.98 552.77H949.96L949.4 543.8H1030.54Z" fill="#9D9CB5"/>
<path d="M938.24 424.17C974.76 450.59 989.97 491.91 989.97 491.91C989.97 491.91 945.97 490.4 909.44 463.98C872.91 437.56 857.72 396.25 857.72 396.25C857.72 396.25 901.73 397.76 938.24 424.17Z" fill="#5C8018"/>
<path d="M857.72 396.25C857.72 396.25 903.39 421.6 918.05 442.59C932.71 463.58 989.97 491.91 989.97 491.91" stroke="#5C8018" stroke-width="2" stroke-miterlimit="10"/>
<path d="M961.81 370.95C981.69 385.32 989.97 407.82 989.97 407.82C989.97 407.82 965.97 406.99 946.14 392.62C926.31 378.25 918.04 355.75 918.04 355.75C918.04 355.75 941.94 356.57 961.81 370.95Z" fill="#5C8018"/>
<path d="M918.04 355.75C918.04 355.75 942.9 369.55 950.87 380.97C958.84 392.39 990.02 407.82 990.02 407.82" stroke="#535461" stroke-width="2" stroke-miterlimit="10"/>
<path d="M1018.85 406.67C996.02 431.76 991.19 464.55 991.19 464.55C991.19 464.55 1023.38 456.65 1046.19 431.55C1069 406.45 1073.85 373.67 1073.85 373.67C1073.85 373.67 1041.68 381.58 1018.85 406.67Z" fill="#5C8018"/>
<path d="M1073.87 373.68C1073.87 373.68 1044.13 399.4 1036.57 417.12C1029.01 434.84 991.19 464.55 991.19 464.55" stroke="#535461" stroke-width="2" stroke-miterlimit="10"/>
<path d="M556.98 346.27V348.55H489.37V346.7C491.224 346.005 492.979 345.07 494.59 343.92C497.461 341.864 499.801 339.153 501.415 336.013C503.029 332.872 503.87 329.391 503.87 325.86C503.871 324.015 503.639 322.177 503.18 320.39C502.362 317.174 500.835 314.182 498.71 311.633C496.585 309.084 493.917 307.043 490.9 305.66H556.52C553.503 307.043 550.835 309.084 548.71 311.633C546.585 314.182 545.058 317.174 544.24 320.39C543.784 322.177 543.556 324.015 543.56 325.86C543.558 329.391 544.398 332.871 546.01 336.012C547.622 339.153 549.96 341.864 552.83 343.92C554.128 344.846 555.519 345.633 556.98 346.27V346.27Z" fill="#DFE6F5"/>
<path opacity="0.1" d="M556.52 305.66C553.503 307.043 550.835 309.084 548.71 311.633C546.585 314.182 545.058 317.174 544.24 320.39H503.18C502.362 317.174 500.835 314.182 498.71 311.633C496.585 309.084 493.917 307.043 490.9 305.66H556.52Z" fill="black"/>
<path d="M411.96 294.01V306.85C411.96 313.93 417.14 319.68 423.54 319.68H622.45C628.85 319.68 634.04 313.93 634.04 306.85V294.01H411.96Z" fill="#DFE6F5"/>
<path opacity="0.1" d="M556.98 346.27V348.55H489.37V346.7C491.224 346.005 492.979 345.07 494.59 343.92H552.83C554.128 344.846 555.519 345.633 556.98 346.27V346.27Z" fill="black"/>
<path d="M575.93 344.63H470.42C468.548 344.63 467.03 346.146 467.03 348.015C467.03 349.884 468.548 351.4 470.42 351.4H575.93C577.802 351.4 579.32 349.884 579.32 348.015C579.32 346.146 577.802 344.63 575.93 344.63Z" fill="#DFE6F5"/>
<path d="M634.04 153.38C634.04 151.858 633.74 150.352 633.158 148.946C632.575 147.541 631.721 146.264 630.645 145.188C629.568 144.113 628.291 143.26 626.885 142.679C625.478 142.097 623.972 141.799 622.45 141.8H423.54C422.019 141.799 420.513 142.097 419.107 142.679C417.701 143.26 416.424 144.113 415.349 145.189C414.273 146.264 413.42 147.541 412.839 148.947C412.257 150.353 411.959 151.859 411.96 153.38V296.51H634.04V153.38Z" fill="#474157"/>
<path d="M627.98 158.55V281.55C627.981 282.299 627.835 283.042 627.549 283.734C627.263 284.427 626.843 285.057 626.314 285.587C625.785 286.117 625.156 286.538 624.464 286.825C623.771 287.112 623.029 287.26 622.28 287.26H423.72C422.971 287.26 422.229 287.112 421.536 286.825C420.844 286.538 420.215 286.117 419.686 285.587C419.157 285.057 418.737 284.427 418.451 283.734C418.165 283.042 418.019 282.299 418.02 281.55V158.55C418.015 157.549 418.277 156.565 418.78 155.7C419.281 154.833 420.001 154.113 420.868 153.613C421.735 153.112 422.719 152.849 423.72 152.85H622.28C623.792 152.85 625.242 153.451 626.311 154.52C627.379 155.588 627.98 157.038 627.98 158.55V158.55Z" fill="#DFE6F5"/>
<path d="M523 149.99C524.475 149.99 525.67 148.795 525.67 147.32C525.67 145.845 524.475 144.65 523 144.65C521.525 144.65 520.33 145.845 520.33 147.32C520.33 148.795 521.525 149.99 523 149.99Z" fill="white"/>
<path d="M523 313.97C526.64 313.97 529.59 311.02 529.59 307.38C529.59 303.74 526.64 300.79 523 300.79C519.36 300.79 516.41 303.74 516.41 307.38C516.41 311.02 519.36 313.97 523 313.97Z" fill="white"/>
<path d="M627.98 158.55H418.04C418.04 157.038 418.641 155.588 419.71 154.52C420.778 153.451 422.228 152.85 423.74 152.85H622.28C623.792 152.85 625.242 153.451 626.311 154.52C627.379 155.588 627.98 157.038 627.98 158.55Z" fill="#C8CAD7"/>
<path d="M423.72 157.13C424.51 157.13 425.15 156.49 425.15 155.7C425.15 154.91 424.51 154.27 423.72 154.27C422.93 154.27 422.29 154.91 422.29 155.7C422.29 156.49 422.93 157.13 423.72 157.13Z" fill="#EDEDF4"/>
<path d="M428 157.13C428.79 157.13 429.43 156.49 429.43 155.7C429.43 154.91 428.79 154.27 428 154.27C427.21 154.27 426.57 154.91 426.57 155.7C426.57 156.49 427.21 157.13 428 157.13Z" fill="#EDEDF4"/>
<path d="M432.28 157.13C433.07 157.13 433.71 156.49 433.71 155.7C433.71 154.91 433.07 154.27 432.28 154.27C431.49 154.27 430.85 154.91 430.85 155.7C430.85 156.49 431.49 157.13 432.28 157.13Z" fill="#EDEDF4"/>
<defs>
<linearGradient id="paint0_linear_0:1" x1="386.45" y1="468.74" x2="388.77" y2="468.74" gradientUnits="userSpaceOnUse">
<stop stop-color="#808080" stop-opacity="0.25"/>
<stop offset="0.54" stop-color="#808080" stop-opacity="0.12"/>
<stop offset="1" stop-color="#808080" stop-opacity="0.1"/>
</linearGradient>
</defs>
</svg>
